<svg width="168" height="169" viewBox="0 0 168 169" fill="none" xmlns="http://www.w3.org/2000/svg">
<path fill-rule="evenodd" clip-rule="evenodd" d="M49.922 84.6873C49.922 63.5573 63.814 48.3833 84.94 48.3833C103.388 48.3833 115.527 60.1723 118.094 77.5663L107.705 79.4343C105.603 66.5943 97.899 58.1883 84.708 58.1883C69.3 58.1883 60.661 69.7453 60.661 84.6873C60.661 100.213 69.181 111.536 84.826 111.536C98.132 111.536 105.72 102.78 107.821 89.4733L118.094 91.2233C115.76 108.734 103.269 121.225 84.826 121.225C63.463 121.225 49.922 105.815 49.922 84.6873Z" fill="#FF231F"/>
<path fill-rule="evenodd" clip-rule="evenodd" d="M118.014 128.029C128.056 136.608 132.331 141.832 142.372 150.412C142.327 150.373 150.259 140.864 150.073 140.705C140.031 132.125 135.757 126.902 125.715 118.322C125.76 118.361 117.828 127.87 118.014 128.029Z" fill="#FF231F"/>
<path fill-rule="evenodd" clip-rule="evenodd" d="M71.79 136.67C69.811 149.729 69.097 154.207 67.118 167.265C67.127 167.207 79.391 168.918 79.428 168.676C81.407 155.617 82.12 151.139 84.1 138.08C84.091 138.139 71.827 136.428 71.79 136.67Z" fill="#FF231F"/>
<path fill-rule="evenodd" clip-rule="evenodd" d="M85.555 0.932247C83.576 13.9912 82.862 18.4692 80.883 31.5272C80.892 31.4692 93.156 33.1803 93.193 32.9383C95.172 19.8793 95.885 15.4013 97.865 2.34326C97.856 2.40126 85.592 0.690247 85.555 0.932247Z" fill="#FF231F"/>
<path fill-rule="evenodd" clip-rule="evenodd" d="M32.233 67.4513C19.174 65.4723 14.696 64.7583 1.63801 62.7793C1.69601 62.7883 -0.0149834 75.0523 0.227017 75.0893C13.286 77.0683 17.764 77.7812 30.822 79.7612C30.764 79.7522 32.475 67.4883 32.233 67.4513Z" fill="#FF231F"/>
<path fill-rule="evenodd" clip-rule="evenodd" d="M167.79 82.4423C154.731 80.4633 150.253 79.7493 137.195 77.7703C137.253 77.7793 135.542 90.0433 135.784 90.0803C148.843 92.0593 153.321 92.7723 166.379 94.7523C166.321 94.7433 168.032 82.4793 167.79 82.4423Z" fill="#FF231F"/>
<path fill-rule="evenodd" clip-rule="evenodd" d="M26.506 22.3123C35.114 32.3303 38.043 35.7913 46.651 45.8093C46.612 45.7643 55.908 37.5833 55.749 37.3983C47.141 27.3803 44.212 23.9182 35.604 13.9012C35.642 13.9462 26.347 22.1273 26.506 22.3123Z" fill="#FF231F"/>
<path fill-rule="evenodd" clip-rule="evenodd" d="M34.089 107.314C22.094 112.842 20.809 113.688 8.81302 119.215C8.86702 119.191 14.182 130.375 14.404 130.272C26.4 124.745 27.685 123.899 39.68 118.371C39.627 118.396 34.311 107.212 34.089 107.314Z" fill="#FF231F"/>
<path fill-rule="evenodd" clip-rule="evenodd" d="M152.527 34.6132C140.532 40.1412 139.247 40.9872 127.251 46.5142C127.305 46.4902 132.62 57.6743 132.842 57.5713C144.838 52.0443 146.123 51.1982 158.118 45.6702C158.065 45.6952 152.749 34.5112 152.527 34.6132Z" fill="#FF231F"/>
</svg>
