<svg width="156" height="50" viewBox="0 0 156 50" fill="none" xmlns="http://www.w3.org/2000/svg">
<path fill-rule="evenodd" clip-rule="evenodd" d="M13.8859 39.6064H8.12585L0.255859 10.8034H5.05579L8.46582 24.4854C9.37582 28.2774 10.1959 31.8784 10.9159 35.6224H11.3458C12.2058 31.7824 13.0758 28.2774 14.0758 24.4854L17.9159 10.8034H23.1958L26.9958 24.4854C27.9958 28.2774 28.7659 31.7824 29.6359 35.6224H30.0658C30.7858 31.8784 31.6958 28.2774 32.5658 24.4854L35.9258 10.8034H40.5259L32.6058 39.6064H26.7958L23.1559 25.9734C22.2359 22.4204 21.2358 18.3884 20.4658 14.9324H20.1758C19.4058 18.3884 18.3958 22.4684 17.4858 25.9734L13.8859 39.6064Z" fill="black"/>
<path fill-rule="evenodd" clip-rule="evenodd" d="M140.576 27.7494V39.6064H136.156V10.8044H155.356V14.9804H140.576V23.5734H153.776V27.7494H140.576Z" fill="black"/>
<path fill-rule="evenodd" clip-rule="evenodd" d="M76.166 37.9014C79.116 40.4214 80.3759 41.9554 83.3259 44.4754C83.3059 44.4644 85.6359 41.6714 85.5859 41.6244C82.6359 39.1044 81.3758 37.5704 78.4258 35.0504C78.4458 35.0614 76.116 37.8544 76.166 37.9014Z" fill="#FF231F"/>
<path fill-rule="evenodd" clip-rule="evenodd" d="M62.5958 40.4394C62.0158 44.2744 61.8058 45.5904 61.2158 49.4254C61.2258 49.4084 64.8258 49.9114 64.8358 49.8404C65.4158 46.0044 65.6258 44.6894 66.2058 40.8534C66.2058 40.8704 62.6058 40.3684 62.5958 40.4394Z" fill="#FF231F"/>
<path fill-rule="evenodd" clip-rule="evenodd" d="M66.6359 0.570361C66.0559 4.40636 65.8459 5.72138 65.2659 9.55638C65.2659 9.53938 68.8659 10.0424 68.8759 9.97136C69.4559 6.13536 69.6659 4.82036 70.2559 0.984362C70.2459 1.00136 66.6459 0.499361 66.6359 0.570361Z" fill="#FF231F"/>
<path fill-rule="evenodd" clip-rule="evenodd" d="M50.9758 20.1084C47.1358 19.5274 45.8259 19.3174 41.9859 18.7364C42.0059 18.7384 41.5058 22.3414 41.5758 22.3514C45.4058 22.9334 46.7258 23.1424 50.5558 23.7244C50.5458 23.7214 51.0458 20.1194 50.9758 20.1084Z" fill="#FF231F"/>
<path fill-rule="evenodd" clip-rule="evenodd" d="M90.7859 24.5114C86.9559 23.9304 85.6358 23.7204 81.8058 23.1394C81.8158 23.1414 81.3159 26.7444 81.3859 26.7544C85.2259 27.3364 86.5359 27.5454 90.3759 28.1274C90.3559 28.1244 90.8559 24.5224 90.7859 24.5114Z" fill="#FF231F"/>
<path fill-rule="evenodd" clip-rule="evenodd" d="M49.2957 6.8504C51.8157 9.7924 52.6758 10.8094 55.2058 13.7514C55.1958 13.7384 57.9258 11.3354 57.8758 11.2814C55.3558 8.33937 54.4958 7.32239 51.9658 4.37939C51.9758 4.39339 49.2457 6.7964 49.2957 6.8504Z" fill="#FF231F"/>
<path fill-rule="evenodd" clip-rule="evenodd" d="M51.5159 31.8164C47.9959 33.4404 47.6158 33.6884 44.0958 35.3124C44.1158 35.3044 45.6758 38.5894 45.7358 38.5594C49.2558 36.9364 49.6359 36.6874 53.1659 35.0644C53.1459 35.0714 51.5859 31.7864 51.5159 31.8164Z" fill="#FF231F"/>
<path fill-rule="evenodd" clip-rule="evenodd" d="M86.3058 10.4634C82.7858 12.0874 82.4059 12.3354 78.8859 13.9594C78.8959 13.9514 80.4559 17.2364 80.5259 17.2064C84.0459 15.5834 84.4258 15.3344 87.9458 13.7114C87.9358 13.7184 86.3658 10.4334 86.3058 10.4634Z" fill="#FF231F"/>
<path fill-rule="evenodd" clip-rule="evenodd" d="M117.956 37.9014C120.906 40.4214 122.156 41.9554 125.106 44.4754C125.096 44.4644 127.426 41.6714 127.366 41.6244C124.416 39.1044 123.166 37.5704 120.216 35.0504C120.226 35.0614 117.896 37.8544 117.956 37.9014Z" fill="#FF231F"/>
<path fill-rule="evenodd" clip-rule="evenodd" d="M104.376 40.4394C103.796 44.2744 103.586 45.5904 103.006 49.4254C103.006 49.4084 106.606 49.9114 106.616 49.8404C107.196 46.0044 107.406 44.6894 107.996 40.8534C107.986 40.8704 104.386 40.3684 104.376 40.4394Z" fill="#FF231F"/>
<path fill-rule="evenodd" clip-rule="evenodd" d="M108.416 0.570361C107.836 4.40636 107.626 5.72138 107.046 9.55638C107.046 9.53938 110.656 10.0424 110.666 9.97136C111.246 6.13536 111.456 4.82036 112.036 0.984362C112.036 1.00136 108.426 0.499361 108.416 0.570361Z" fill="#FF231F"/>
<path fill-rule="evenodd" clip-rule="evenodd" d="M132.576 24.5114C128.736 23.9304 127.426 23.7204 123.586 23.1394C123.606 23.1414 123.096 26.7444 123.176 26.7544C127.006 27.3364 128.326 27.5454 132.156 28.1274C132.136 28.1244 132.646 24.5224 132.576 24.5114Z" fill="#FF231F"/>
<path fill-rule="evenodd" clip-rule="evenodd" d="M91.0758 6.8504C93.6058 9.7924 94.4658 10.8094 96.9958 13.7514C96.9758 13.7384 99.7058 11.3354 99.6658 11.2814C97.1358 8.33937 96.2758 7.32239 93.7458 4.37939C93.7558 4.39339 91.0258 6.7964 91.0758 6.8504Z" fill="#FF231F"/>
<path fill-rule="evenodd" clip-rule="evenodd" d="M93.3058 31.8164C89.7758 33.4404 89.4059 33.6884 85.8759 35.3124C85.8959 35.3044 87.4559 38.5894 87.5159 38.5594C91.0459 36.9364 91.4258 36.6874 94.9458 35.0644C94.9258 35.0714 93.3658 31.7864 93.3058 31.8164Z" fill="#FF231F"/>
<path fill-rule="evenodd" clip-rule="evenodd" d="M128.086 10.4634C124.566 12.0874 124.186 12.3354 120.666 13.9594C120.686 13.9514 122.246 17.2364 122.306 17.2064C125.836 15.5834 126.206 15.3344 129.736 13.7114C129.716 13.7184 128.156 10.4334 128.086 10.4634Z" fill="#FF231F"/>
</svg>
