<svg width="334" height="334" viewBox="0 0 334 334" fill="none" xmlns="http://www.w3.org/2000/svg">
<path fill-rule="evenodd" clip-rule="evenodd" d="M109.122 126.706C109.122 118.017 114.835 111.776 123.526 111.776C131.106 111.776 136.096 116.625 137.156 123.778L132.886 124.546C132.016 119.266 128.856 115.81 123.426 115.81C117.091 115.81 113.539 120.561 113.539 126.706C113.539 133.091 117.043 137.747 123.476 137.747C128.946 137.747 132.066 134.146 132.936 128.675L137.156 129.394C136.196 136.595 131.056 141.731 123.476 141.731C114.691 141.731 109.122 135.394 109.122 126.706Z" fill="black"/>
<path fill-rule="evenodd" clip-rule="evenodd" d="M165.426 126.658C165.426 120.561 161.736 115.809 155.156 115.809C148.576 115.809 144.886 120.561 144.886 126.658C144.886 133.091 148.486 137.747 155.156 137.747C161.826 137.747 165.426 133.091 165.426 126.658ZM140.466 126.706C140.466 118.113 146.226 111.776 155.156 111.776C164.136 111.776 169.846 118.113 169.846 126.706C169.846 135.251 164.276 141.731 155.156 141.731C146.036 141.731 140.466 135.251 140.466 126.706Z" fill="black"/>
<path fill-rule="evenodd" clip-rule="evenodd" d="M195.306 141.155H171.926V136.979L189.546 116.625L189.456 116.385C187.006 116.432 184.076 116.529 181.386 116.529H172.456V112.352H195.216V116.481L177.596 136.883L177.686 137.123C180.136 137.075 183.016 136.979 185.466 136.979H195.306V141.155Z" fill="black"/>
<path fill-rule="evenodd" clip-rule="evenodd" d="M209.386 141.155V130.45L198.256 112.448V112.352H203.096L211.596 126.37L220.046 112.352H224.896V112.448L213.806 130.45V141.155H209.386Z" fill="black"/>
<path fill-rule="evenodd" clip-rule="evenodd" d="M72 166.706C72 158.017 77.713 151.776 86.401 151.776C93.985 151.776 98.979 156.625 100.034 163.778L95.762 164.546C94.897 159.266 91.729 155.81 86.305 155.81C79.969 155.81 76.416 160.561 76.416 166.706C76.416 173.091 79.921 177.747 86.354 177.747C91.825 177.747 94.946 174.146 95.81 168.675L100.034 169.394C99.074 176.595 93.937 181.731 86.354 181.731C77.568 181.731 72 175.394 72 166.706Z" fill="black"/>
<path fill-rule="evenodd" clip-rule="evenodd" d="M128.306 166.658C128.306 160.561 124.606 155.809 118.032 155.809C111.455 155.809 107.759 160.561 107.759 166.658C107.759 173.091 111.36 177.747 118.032 177.747C124.706 177.747 128.306 173.091 128.306 166.658ZM103.342 166.706C103.342 158.113 109.103 151.776 118.032 151.776C127.006 151.776 132.726 158.113 132.726 166.706C132.726 175.251 127.156 181.731 118.032 181.731C108.911 181.731 103.342 175.251 103.342 166.706Z" fill="black"/>
<path fill-rule="evenodd" clip-rule="evenodd" d="M147.666 181.155H141.906L134.036 152.352H138.836L142.246 166.034C143.156 169.826 143.966 173.426 144.686 177.171H145.126C145.986 173.331 146.856 169.826 147.856 166.034L151.696 152.352H156.976L160.776 166.034C161.776 169.826 162.546 173.331 163.416 177.171H163.846C164.566 173.426 165.476 169.826 166.336 166.034L169.696 152.352H174.306L166.386 181.155H160.576L156.936 167.522C156.016 163.969 155.016 159.937 154.246 156.481H153.956C153.186 159.937 152.176 164.017 151.266 167.522L147.666 181.155Z" fill="black"/>
<path fill-rule="evenodd" clip-rule="evenodd" d="M200.586 166.658C200.586 160.561 196.886 155.809 190.306 155.809C183.736 155.809 180.036 160.561 180.036 166.658C180.036 173.091 183.636 177.747 190.306 177.747C196.986 177.747 200.586 173.091 200.586 166.658ZM175.616 166.706C175.616 158.113 181.386 151.776 190.306 151.776C199.286 151.776 204.996 158.113 204.996 166.706C204.996 175.251 199.436 181.731 190.306 181.731C181.186 181.731 175.616 175.251 175.616 166.706Z" fill="black"/>
<path fill-rule="evenodd" clip-rule="evenodd" d="M214.356 156.289V165.17H221.556C225.246 165.17 227.406 163.586 227.406 160.657C227.406 157.97 225.966 156.289 221.796 156.289H214.356ZM219.966 169.106H214.356V181.155H209.936V152.352H222.036C228.706 152.352 231.776 155.569 231.776 160.561C231.776 165.122 229.236 168.002 224.626 168.866L233.606 181.06V181.155H228.276L219.966 169.106Z" fill="black"/>
<path fill-rule="evenodd" clip-rule="evenodd" d="M242.866 169.346H242.436V181.155H238.016V152.352H242.436V165.698H242.816L256.116 152.352H261.346V152.448L246.176 167.282L262.016 181.059V181.155H256.496L242.866 169.346Z" fill="black"/>
<path fill-rule="evenodd" clip-rule="evenodd" d="M113.838 206.706C113.838 198.017 119.551 191.776 128.236 191.776C135.826 191.776 140.816 196.625 141.876 203.778L137.596 204.546C136.736 199.266 133.566 195.81 128.146 195.81C121.807 195.81 118.255 200.561 118.255 206.706C118.255 213.091 121.759 217.747 128.196 217.747C133.666 217.747 136.786 214.146 137.646 208.675L141.876 209.394C140.916 216.595 135.776 221.731 128.196 221.731C119.407 221.731 113.838 215.394 113.838 206.706Z" fill="black"/>
<path fill-rule="evenodd" clip-rule="evenodd" d="M151.646 209.442H161.676L160.376 206.177C159.226 203.105 157.886 199.601 156.826 196.672H156.536C155.486 199.649 154.186 203.105 152.936 206.177L151.646 209.442ZM163.066 213.09H150.246L147.086 221.155H142.476L154.286 192.352H159.176L170.986 221.155H166.236L163.066 213.09Z" fill="black"/>
<path fill-rule="evenodd" clip-rule="evenodd" d="M178.716 209.297V221.154H174.306V192.352H193.506V196.528H178.716V205.121H191.916V209.297H178.716Z" fill="black"/>
<path fill-rule="evenodd" clip-rule="evenodd" d="M197.856 192.352H217.826V196.529H202.276V204.45H216.336V208.578H202.276V216.979H217.876V221.155H197.856V192.352Z" fill="black"/>
<path fill-rule="evenodd" clip-rule="evenodd" d="M234.596 252.67C254.556 269.723 263.056 280.105 283.016 297.158C282.926 297.082 298.686 278.181 298.316 277.865C278.366 260.812 269.866 250.43 249.906 233.377C249.996 233.453 234.226 252.354 234.596 252.67Z" fill="#FF231F"/>
<path fill-rule="evenodd" clip-rule="evenodd" d="M142.726 269.844C138.786 295.8 137.366 304.701 133.436 330.657C133.456 330.541 157.826 333.94 157.906 333.46C161.836 307.504 163.256 298.603 167.186 272.648C167.176 272.764 142.796 269.364 142.726 269.844Z" fill="#FF231F"/>
<path fill-rule="evenodd" clip-rule="evenodd" d="M170.086 0.0464625C166.146 26.0023 164.736 34.9033 160.796 60.8593C160.816 60.7433 185.196 64.1423 185.266 63.6623C189.196 37.7063 190.616 28.8053 194.546 2.85046C194.536 2.96646 170.156 -0.433538 170.086 0.0464625Z" fill="#FF231F"/>
<path fill-rule="evenodd" clip-rule="evenodd" d="M64.0971 132.262C38.1411 128.328 29.24 126.91 3.28402 122.975C3.40002 122.993 0.00104557 147.37 0.481046 147.443C26.437 151.377 35.3381 152.795 61.2931 156.729C61.1771 156.712 64.5771 132.335 64.0971 132.262Z" fill="#FF231F"/>
<path fill-rule="evenodd" clip-rule="evenodd" d="M333.536 162.06C307.576 158.126 298.676 156.708 272.726 152.773C272.836 152.791 269.436 177.168 269.916 177.241C295.876 181.175 304.776 182.593 330.736 186.527C330.616 186.51 334.016 162.133 333.536 162.06Z" fill="#FF231F"/>
<path fill-rule="evenodd" clip-rule="evenodd" d="M52.714 42.5433C69.823 62.4543 75.645 69.3353 92.754 89.2463C92.678 89.1573 111.154 72.8963 110.838 72.5283C93.729 52.6173 87.906 45.7363 70.797 25.8253C70.874 25.9143 52.397 42.1753 52.714 42.5433Z" fill="#FF231F"/>
<path fill-rule="evenodd" clip-rule="evenodd" d="M67.788 211.495C43.946 222.482 41.391 224.163 17.549 235.15C17.656 235.101 28.221 257.331 28.662 257.128C52.505 246.141 55.059 244.46 78.901 233.473C78.795 233.522 68.229 211.292 67.788 211.495Z" fill="#FF231F"/>
<path fill-rule="evenodd" clip-rule="evenodd" d="M303.196 66.9923C279.356 77.9793 276.806 79.6603 252.956 90.6473C253.066 90.5983 263.636 112.828 264.076 112.625C287.916 101.638 290.466 99.9573 314.316 88.9703C314.206 89.0193 303.636 66.7893 303.196 66.9923Z" fill="#FF231F"/>
</svg>
