<svg width="139" height="50" viewBox="0 0 139 50" fill="none" xmlns="http://www.w3.org/2000/svg">
<path fill-rule="evenodd" clip-rule="evenodd" d="M5.15588 27.7494V39.6064H0.73584V10.8034H19.9358V14.9804H5.15588V23.5734H18.3558V27.7494H5.15588Z" fill="black"/>
<path fill-rule="evenodd" clip-rule="evenodd" d="M117.416 14.5484V35.8624H123.996C131.336 35.8624 134.506 31.7344 134.506 25.0134C134.506 18.3404 131.096 14.5484 123.656 14.5484H117.416ZM112.996 10.8034H124.236C134.026 10.8034 138.876 16.4204 138.876 25.0134C138.876 33.6064 133.646 39.6064 124.426 39.6064H112.996V10.8034Z" fill="black"/>
<path fill-rule="evenodd" clip-rule="evenodd" d="M55.5759 37.9014C58.5259 40.4214 59.7859 41.9554 62.7359 44.4754C62.7159 44.4644 65.0459 41.6714 64.9959 41.6244C62.0459 39.1044 60.7859 37.5704 57.8359 35.0504C57.8559 35.0614 55.5259 37.8544 55.5759 37.9014Z" fill="#FF231F"/>
<path fill-rule="evenodd" clip-rule="evenodd" d="M42.0059 40.4394C41.4159 44.2744 41.2059 45.5904 40.6259 49.4254C40.6359 49.4084 44.2358 49.9114 44.2458 49.8404C44.8258 46.0044 45.0358 44.6894 45.6158 40.8534C45.6158 40.8704 42.0159 40.3684 42.0059 40.4394Z" fill="#FF231F"/>
<path fill-rule="evenodd" clip-rule="evenodd" d="M46.0458 0.570361C45.4658 4.40636 45.2558 5.72138 44.6758 9.55638C44.6758 9.53938 48.2759 10.0424 48.2859 9.97136C48.8659 6.13536 49.0759 4.82036 49.6659 0.984362C49.6559 1.00136 46.0558 0.499361 46.0458 0.570361Z" fill="#FF231F"/>
<path fill-rule="evenodd" clip-rule="evenodd" d="M30.3859 20.1084C26.5459 19.5274 25.2359 19.3174 21.3959 18.7364C21.4159 18.7384 20.9159 22.3414 20.9859 22.3514C24.8159 22.9334 26.1358 23.1424 29.9658 23.7244C29.9558 23.7214 30.4559 20.1194 30.3859 20.1084Z" fill="#FF231F"/>
<path fill-rule="evenodd" clip-rule="evenodd" d="M70.1958 24.5114C66.3658 23.9304 65.0458 23.7204 61.2158 23.1394C61.2258 23.1414 60.7258 26.7444 60.7958 26.7544C64.6358 27.3364 65.9459 27.5454 69.7859 28.1274C69.7659 28.1244 70.2658 24.5224 70.1958 24.5114Z" fill="#FF231F"/>
<path fill-rule="evenodd" clip-rule="evenodd" d="M28.7058 6.8504C31.2258 9.7924 32.0858 10.8094 34.6158 13.7514C34.6058 13.7384 37.3358 11.3354 37.2858 11.2814C34.7658 8.33937 33.9058 7.32239 31.3758 4.37939C31.3858 4.39339 28.6558 6.7964 28.7058 6.8504Z" fill="#FF231F"/>
<path fill-rule="evenodd" clip-rule="evenodd" d="M30.9258 31.8164C27.4058 33.4404 27.0259 33.6884 23.5059 35.3124C23.5159 35.3044 25.0859 38.5894 25.1459 38.5594C28.6659 36.9364 29.0458 36.6874 32.5658 35.0644C32.5558 35.0714 30.9958 31.7864 30.9258 31.8164Z" fill="#FF231F"/>
<path fill-rule="evenodd" clip-rule="evenodd" d="M65.7158 10.4634C62.1958 12.0874 61.8158 12.3354 58.2958 13.9594C58.3058 13.9514 59.8658 17.2364 59.9358 17.2064C63.4558 15.5834 63.8358 15.3344 67.3558 13.7114C67.3458 13.7184 65.7758 10.4334 65.7158 10.4634Z" fill="#FF231F"/>
<path fill-rule="evenodd" clip-rule="evenodd" d="M97.3659 37.9014C100.306 40.4214 101.566 41.9554 104.516 44.4754C104.506 44.4644 106.836 41.6714 106.776 41.6244C103.826 39.1044 102.576 37.5704 99.6259 35.0504C99.6359 35.0614 97.3059 37.8544 97.3659 37.9014Z" fill="#FF231F"/>
<path fill-rule="evenodd" clip-rule="evenodd" d="M83.7859 40.4394C83.2059 44.2744 82.9959 45.5904 82.4159 49.4254C82.4159 49.4084 86.0159 49.9114 86.0259 49.8404C86.6059 46.0044 86.8159 44.6894 87.4059 40.8534C87.3959 40.8704 83.7959 40.3684 83.7859 40.4394Z" fill="#FF231F"/>
<path fill-rule="evenodd" clip-rule="evenodd" d="M87.8258 0.570361C87.2458 4.40636 87.0358 5.72138 86.4558 9.55638C86.4558 9.53938 90.0658 10.0424 90.0758 9.97136C90.6558 6.13536 90.8658 4.82036 91.4458 0.984362C91.4458 1.00136 87.8358 0.499361 87.8258 0.570361Z" fill="#FF231F"/>
<path fill-rule="evenodd" clip-rule="evenodd" d="M111.986 24.5114C108.146 23.9304 106.826 23.7204 102.996 23.1394C103.016 23.1414 102.506 26.7444 102.576 26.7544C106.416 27.3364 107.736 27.5454 111.566 28.1274C111.546 28.1244 112.056 24.5224 111.986 24.5114Z" fill="#FF231F"/>
<path fill-rule="evenodd" clip-rule="evenodd" d="M70.4858 6.8504C73.0158 9.7924 73.8758 10.8094 76.4058 13.7514C76.3858 13.7384 79.1158 11.3354 79.0758 11.2814C76.5458 8.33937 75.6858 7.32239 73.1558 4.37939C73.1658 4.39339 70.4358 6.7964 70.4858 6.8504Z" fill="#FF231F"/>
<path fill-rule="evenodd" clip-rule="evenodd" d="M72.7158 31.8164C69.1858 33.4404 68.8159 33.6884 65.2859 35.3124C65.3059 35.3044 66.8658 38.5894 66.9258 38.5594C70.4558 36.9364 70.8358 36.6874 74.3558 35.0644C74.3358 35.0714 72.7758 31.7864 72.7158 31.8164Z" fill="#FF231F"/>
<path fill-rule="evenodd" clip-rule="evenodd" d="M107.496 10.4634C103.976 12.0874 103.596 12.3354 100.076 13.9594C100.086 13.9514 101.656 17.2364 101.716 17.2064C105.236 15.5834 105.616 15.3344 109.136 13.7114C109.126 13.7184 107.566 10.4334 107.496 10.4634Z" fill="#FF231F"/>
</svg>
