<svg width="152" height="50" viewBox="0 0 152 50" fill="none" xmlns="http://www.w3.org/2000/svg">
<path fill-rule="evenodd" clip-rule="evenodd" d="M4.79578 39.3284H0.525879V10.5254H7.38586L13.0059 24.5914C13.8159 26.7034 15.4059 30.9274 16.5059 34.3844C17.7059 30.9754 19.2459 26.8474 20.1559 24.4474L25.7759 10.5254H32.1559V39.3284H27.7358V25.0714C27.7358 21.8074 27.8858 17.4864 27.9358 14.2224H27.8859C26.6859 17.8704 25.0059 22.6714 23.4159 26.7514L18.2358 39.3284H14.2058L9.16589 26.5594C7.48589 22.2394 5.99578 17.8224 4.79578 14.2224H4.74585C4.79585 17.5344 4.79578 21.7104 4.79578 25.0714V39.3284Z" fill="black"/>
<path fill-rule="evenodd" clip-rule="evenodd" d="M129.636 14.2704V35.5844H136.206C143.556 35.5844 146.726 31.4564 146.726 24.7354C146.726 18.0624 143.316 14.2704 135.876 14.2704H129.636ZM125.216 10.5254H136.446C146.246 10.5254 151.096 16.1424 151.096 24.7354C151.096 33.3284 145.856 39.3284 136.646 39.3284H125.216V10.5254Z" fill="black"/>
<path fill-rule="evenodd" clip-rule="evenodd" d="M67.7958 37.6234C70.7458 40.1434 71.9958 41.6774 74.9458 44.1974C74.9358 44.1864 77.2659 41.3934 77.2159 41.3464C74.2659 38.8264 73.0058 37.2924 70.0558 34.7724C70.0658 34.7834 67.7358 37.5764 67.7958 37.6234Z" fill="#FF231F"/>
<path fill-rule="evenodd" clip-rule="evenodd" d="M54.2158 40.1604C53.6358 43.9954 53.4258 45.3114 52.8458 49.1464C52.8458 49.1294 56.4558 49.6324 56.4658 49.5614C57.0458 45.7254 57.2558 44.4104 57.8358 40.5744C57.8358 40.5914 54.2258 40.0894 54.2158 40.1604Z" fill="#FF231F"/>
<path fill-rule="evenodd" clip-rule="evenodd" d="M58.2659 0.292406C57.6759 4.12741 57.4659 5.44337 56.8859 9.27837C56.8959 9.26137 60.4959 9.76441 60.5059 9.69341C61.0859 5.85741 61.2959 4.54241 61.8759 0.706408C61.8759 0.723408 58.2759 0.221406 58.2659 0.292406Z" fill="#FF231F"/>
<path fill-rule="evenodd" clip-rule="evenodd" d="M42.5958 19.8304C38.7658 19.2494 37.4459 19.0394 33.6159 18.4584C33.6359 18.4604 33.1258 22.0634 33.1958 22.0734C37.0358 22.6554 38.3458 22.8644 42.1858 23.4464C42.1658 23.4434 42.6758 19.8414 42.5958 19.8304Z" fill="#FF231F"/>
<path fill-rule="evenodd" clip-rule="evenodd" d="M82.4159 24.2334C78.5759 23.6524 77.2658 23.4424 73.4258 22.8614C73.4458 22.8634 72.9459 26.4664 73.0159 26.4764C76.8459 27.0584 78.1659 27.2674 82.0059 27.8494C81.9859 27.8464 82.4859 24.2444 82.4159 24.2334Z" fill="#FF231F"/>
<path fill-rule="evenodd" clip-rule="evenodd" d="M40.9158 6.57239C43.4458 9.51439 44.3058 10.5314 46.8358 13.4734C46.8258 13.4604 49.5558 11.0574 49.5058 11.0034C46.9758 8.06142 46.1158 7.04442 43.5858 4.10242C43.6058 4.11542 40.8758 6.51839 40.9158 6.57239Z" fill="#FF231F"/>
<path fill-rule="evenodd" clip-rule="evenodd" d="M43.1459 31.5384C39.6259 33.1624 39.2458 33.4104 35.7258 35.0344C35.7358 35.0264 37.2958 38.3114 37.3658 38.2814C40.8858 36.6584 41.2659 36.4094 44.7859 34.7864C44.7759 34.7934 43.2059 31.5084 43.1459 31.5384Z" fill="#FF231F"/>
<path fill-rule="evenodd" clip-rule="evenodd" d="M77.9358 10.1854C74.4058 11.8094 74.0359 12.0574 70.5059 13.6814C70.5259 13.6734 72.0859 16.9584 72.1459 16.9284C75.6759 15.3054 76.0558 15.0564 79.5758 13.4334C79.5558 13.4404 77.9958 10.1554 77.9358 10.1854Z" fill="#FF231F"/>
<path fill-rule="evenodd" clip-rule="evenodd" d="M109.576 37.6234C112.526 40.1434 113.786 41.6774 116.736 44.1974C116.716 44.1864 119.046 41.3934 118.996 41.3464C116.046 38.8264 114.786 37.2924 111.836 34.7724C111.856 34.7834 109.526 37.5764 109.576 37.6234Z" fill="#FF231F"/>
<path fill-rule="evenodd" clip-rule="evenodd" d="M96.0059 40.1604C95.4159 43.9954 95.2059 45.3114 94.6259 49.1464C94.6359 49.1294 98.2358 49.6324 98.2458 49.5614C98.8258 45.7254 99.0358 44.4104 99.6158 40.5744C99.6158 40.5914 96.0159 40.0894 96.0059 40.1604Z" fill="#FF231F"/>
<path fill-rule="evenodd" clip-rule="evenodd" d="M100.046 0.292406C99.4658 4.12741 99.2558 5.44337 98.6758 9.27837C98.6758 9.26137 102.276 9.76441 102.286 9.69341C102.866 5.85741 103.076 4.54241 103.666 0.706408C103.656 0.723408 100.056 0.221406 100.046 0.292406Z" fill="#FF231F"/>
<path fill-rule="evenodd" clip-rule="evenodd" d="M124.196 24.2334C120.366 23.6524 119.046 23.4424 115.216 22.8614C115.226 22.8634 114.726 26.4664 114.796 26.4764C118.636 27.0584 119.946 27.2674 123.786 27.8494C123.766 27.8464 124.266 24.2444 124.196 24.2334Z" fill="#FF231F"/>
<path fill-rule="evenodd" clip-rule="evenodd" d="M82.7058 6.57239C85.2258 9.51439 86.0858 10.5314 88.6158 13.4734C88.6058 13.4604 91.3358 11.0574 91.2858 11.0034C88.7658 8.06142 87.9058 7.04442 85.3758 4.10242C85.3858 4.11542 82.6558 6.51839 82.7058 6.57239Z" fill="#FF231F"/>
<path fill-rule="evenodd" clip-rule="evenodd" d="M84.9258 31.5384C81.4058 33.1624 81.0259 33.4104 77.5059 35.0344C77.5159 35.0264 79.0859 38.3114 79.1459 38.2814C82.6659 36.6584 83.0458 36.4094 86.5658 34.7864C86.5558 34.7934 84.9958 31.5084 84.9258 31.5384Z" fill="#FF231F"/>
<path fill-rule="evenodd" clip-rule="evenodd" d="M119.716 10.1854C116.196 11.8094 115.816 12.0574 112.296 13.6814C112.306 13.6734 113.866 16.9584 113.936 16.9284C117.456 15.3054 117.836 15.0564 121.356 13.4334C121.346 13.4404 119.776 10.1554 119.716 10.1854Z" fill="#FF231F"/>
</svg>
