<svg width="316" height="75" viewBox="0 0 316 75" fill="none" xmlns="http://www.w3.org/2000/svg">
<path fill-rule="evenodd" clip-rule="evenodd" d="M0.661011 37.6273C0.661011 24.6073 9.22099 15.2563 22.24 15.2563C33.604 15.2563 41.086 22.5212 42.668 33.2402L36.266 34.3903C34.971 26.4783 30.224 21.2993 22.095 21.2993C12.602 21.2993 7.27802 28.4203 7.27802 37.6273C7.27802 47.1943 12.53 54.1713 22.169 54.1713C30.368 54.1713 35.044 48.7763 36.338 40.5773L42.668 41.6542C41.23 52.4442 33.533 60.1412 22.169 60.1412C9.00501 60.1412 0.661011 50.6463 0.661011 37.6273Z" fill="black"/>
<path fill-rule="evenodd" clip-rule="evenodd" d="M144.006 59.2783H135.376L123.586 16.1193H130.776L135.886 36.6202C137.246 42.3022 138.476 47.6972 139.556 53.3082H140.196C141.496 47.5542 142.786 42.3022 144.296 36.6202L150.056 16.1193H157.966L163.646 36.6202C165.156 42.3022 166.306 47.5542 167.606 53.3082H168.256C169.326 47.6972 170.696 42.3022 171.996 36.6202L177.026 16.1193H183.936L172.066 59.2783H163.356L157.896 38.8503C156.526 33.5273 155.016 27.4853 153.866 22.3063H153.436C152.286 27.4853 150.776 33.5983 149.406 38.8503L144.006 59.2783Z" fill="black"/>
<path fill-rule="evenodd" clip-rule="evenodd" d="M223.306 37.5552C223.306 28.4202 217.766 21.2993 207.906 21.2993C198.056 21.2993 192.516 28.4202 192.516 37.5552C192.516 47.1942 197.916 54.1713 207.906 54.1713C217.906 54.1713 223.306 47.1942 223.306 37.5552ZM185.896 37.6273C185.896 24.7513 194.526 15.2563 207.906 15.2563C221.356 15.2563 229.916 24.7513 229.916 37.6273C229.916 50.4313 221.576 60.1412 207.906 60.1412C194.246 60.1412 185.896 50.4313 185.896 37.6273Z" fill="black"/>
<path fill-rule="evenodd" clip-rule="evenodd" d="M243.936 22.0182V35.3253H254.726C260.266 35.3253 263.496 32.9522 263.496 28.5632C263.496 24.5362 261.336 22.0182 255.086 22.0182H243.936ZM252.346 41.2242H243.936V59.2783H237.316V16.1193H255.446C265.446 16.1193 270.046 20.9402 270.046 28.4202C270.046 35.2542 266.236 39.5693 259.326 40.8643L272.776 59.1353V59.2783H264.796L252.346 41.2242Z" fill="black"/>
<path fill-rule="evenodd" clip-rule="evenodd" d="M286.656 41.5842H286.006V59.2783H279.396V16.1202H286.006V36.1172H286.586L306.506 16.1202H314.346V16.2632L291.616 38.4913L315.356 59.1353V59.2783H307.086L286.656 41.5842Z" fill="black"/>
<path fill-rule="evenodd" clip-rule="evenodd" d="M99.46 56.7222C103.879 60.4982 105.761 62.7972 110.18 66.5732C110.161 66.5562 113.646 62.3713 113.566 62.3013C109.15 58.5253 107.269 56.2263 102.849 52.4503C102.869 52.4673 99.378 56.6522 99.46 56.7222Z" fill="#FF231F"/>
<path fill-rule="evenodd" clip-rule="evenodd" d="M79.116 60.5253C78.245 66.2723 77.931 68.2432 77.06 73.9902C77.064 73.9652 82.461 74.7173 82.477 74.6113C83.349 68.8643 83.663 66.8932 84.534 61.1462C84.53 61.1712 79.132 60.4193 79.116 60.5253Z" fill="#FF231F"/>
<path fill-rule="evenodd" clip-rule="evenodd" d="M85.174 0.786246C84.303 6.53325 83.989 8.50427 83.118 14.2513C83.122 14.2263 88.519 14.9782 88.535 14.8722C89.407 9.12524 89.721 7.15428 90.592 1.40728C90.588 1.43228 85.19 0.680246 85.174 0.786246Z" fill="#FF231F"/>
<path fill-rule="evenodd" clip-rule="evenodd" d="M61.707 30.0613C55.96 29.1903 53.989 28.8762 48.242 28.0052C48.267 28.0092 47.515 33.4062 47.621 33.4222C53.368 34.2942 55.339 34.6072 61.086 35.4792C61.061 35.4752 61.813 30.0773 61.707 30.0613Z" fill="#FF231F"/>
<path fill-rule="evenodd" clip-rule="evenodd" d="M121.366 36.6592C115.616 35.7882 113.646 35.4743 107.901 34.6033C107.926 34.6073 107.174 40.0043 107.28 40.0203C113.026 40.8923 114.996 41.2063 120.746 42.0773C120.716 42.0733 121.476 36.6752 121.366 36.6592Z" fill="#FF231F"/>
<path fill-rule="evenodd" clip-rule="evenodd" d="M59.186 10.1953C62.974 14.6043 64.264 16.1273 68.052 20.5363C68.035 20.5163 72.126 16.9162 72.056 16.8342C68.268 12.4262 66.978 10.9023 63.19 6.49329C63.207 6.51329 59.116 10.1133 59.186 10.1953Z" fill="#FF231F"/>
<path fill-rule="evenodd" clip-rule="evenodd" d="M62.524 47.6053C57.245 50.0383 56.679 50.4103 51.4 52.8433C51.424 52.8323 53.763 57.7542 53.861 57.7092C59.14 55.2762 59.705 54.9043 64.985 52.4713C64.961 52.4823 62.622 47.5603 62.524 47.6053Z" fill="#FF231F"/>
<path fill-rule="evenodd" clip-rule="evenodd" d="M114.646 15.6093C109.37 18.0423 108.804 18.4142 103.525 20.8472C103.549 20.8362 105.888 25.7583 105.986 25.7133C111.265 23.2803 111.83 22.9083 117.106 20.4753C117.086 20.4863 114.746 15.5643 114.646 15.6093Z" fill="#FF231F"/>
</svg>
