<svg width="139" height="51" viewBox="0 0 139 51" fill="none" xmlns="http://www.w3.org/2000/svg">
<path fill-rule="evenodd" clip-rule="evenodd" d="M20.5159 39.8844V27.5474H5.15588V39.8844H0.73584V11.0814H5.15588V23.3704H20.5159V11.0814H24.9358V39.8844H20.5159Z" fill="black"/>
<path fill-rule="evenodd" clip-rule="evenodd" d="M122.406 15.0184V25.0504H128.656C132.396 25.0504 134.366 23.4664 134.366 20.0584C134.366 16.5544 132.636 15.0184 128.556 15.0184H122.406ZM122.406 28.9884V39.8844H117.996V11.0814H128.986C135.416 11.0814 138.876 14.0584 138.876 20.0114C138.876 25.2444 135.276 28.9884 129.086 28.9884H122.406Z" fill="black"/>
<path fill-rule="evenodd" clip-rule="evenodd" d="M60.5758 38.1794C63.5158 40.6994 64.7759 42.2334 67.7259 44.7534C67.7159 44.7424 70.0459 41.9494 69.9859 41.9024C67.0359 39.3824 65.7859 37.8484 62.8359 35.3284C62.8459 35.3394 60.5158 38.1324 60.5758 38.1794Z" fill="#FF231F"/>
<path fill-rule="evenodd" clip-rule="evenodd" d="M46.9958 40.7175C46.4158 44.5535 46.2059 45.8684 45.6259 49.7034C45.6259 49.6864 49.2258 50.1895 49.2358 50.1185C49.8158 46.2825 50.0258 44.9675 50.6058 41.1315C50.6058 41.1485 47.0058 40.6465 46.9958 40.7175Z" fill="#FF231F"/>
<path fill-rule="evenodd" clip-rule="evenodd" d="M51.0359 0.849413C50.4559 4.68541 50.2459 6.00041 49.6659 9.83541C49.6659 9.81841 53.2659 10.3214 53.2759 10.2504C53.8659 6.41441 54.0759 5.09941 54.6559 1.26341C54.6459 1.28041 51.0459 0.778413 51.0359 0.849413Z" fill="#FF231F"/>
<path fill-rule="evenodd" clip-rule="evenodd" d="M35.3759 20.3864C31.5459 19.8054 30.2259 19.5954 26.3859 19.0144C26.4059 19.0164 25.9058 22.6184 25.9758 22.6294C29.8158 23.2114 31.1258 23.4204 34.9658 24.0024C34.9458 23.9994 35.4459 20.3974 35.3759 20.3864Z" fill="#FF231F"/>
<path fill-rule="evenodd" clip-rule="evenodd" d="M75.1958 24.7905C71.3558 24.2095 70.0358 23.9995 66.2058 23.4185C66.2258 23.4205 65.7159 27.0224 65.7859 27.0334C69.6259 27.6154 70.9459 27.8245 74.7759 28.4065C74.7559 28.4035 75.2658 24.8015 75.1958 24.7905Z" fill="#FF231F"/>
<path fill-rule="evenodd" clip-rule="evenodd" d="M33.6957 7.12845C36.2257 10.0704 37.0858 11.0874 39.6158 14.0294C39.5958 14.0164 42.3258 11.6134 42.2858 11.5594C39.7558 8.61745 38.8958 7.60045 36.3658 4.65845C36.3758 4.67145 33.6457 7.07445 33.6957 7.12845Z" fill="#FF231F"/>
<path fill-rule="evenodd" clip-rule="evenodd" d="M35.9258 32.0954C32.3958 33.7194 32.0158 33.9674 28.4958 35.5914C28.5158 35.5834 30.0759 38.8684 30.1359 38.8384C33.6659 37.2154 34.0358 36.9664 37.5658 35.3434C37.5458 35.3504 35.9858 32.0654 35.9258 32.0954Z" fill="#FF231F"/>
<path fill-rule="evenodd" clip-rule="evenodd" d="M70.7058 10.7414C67.1858 12.3654 66.8059 12.6134 63.2859 14.2374C63.2959 14.2294 64.8658 17.5144 64.9258 17.4844C68.4458 15.8614 68.8258 15.6124 72.3458 13.9894C72.3358 13.9964 70.7758 10.7114 70.7058 10.7414Z" fill="#FF231F"/>
<path fill-rule="evenodd" clip-rule="evenodd" d="M102.356 38.1794C105.306 40.6994 106.556 42.2334 109.506 44.7534C109.496 44.7424 111.826 41.9494 111.766 41.9024C108.826 39.3824 107.566 37.8484 104.616 35.3284C104.626 35.3394 102.296 38.1324 102.356 38.1794Z" fill="#FF231F"/>
<path fill-rule="evenodd" clip-rule="evenodd" d="M88.7759 40.7175C88.1959 44.5535 87.9859 45.8684 87.4059 49.7034C87.4059 49.6864 91.0059 50.1895 91.0159 50.1185C91.6059 46.2825 91.8159 44.9675 92.3959 41.1315C92.3859 41.1485 88.7859 40.6465 88.7759 40.7175Z" fill="#FF231F"/>
<path fill-rule="evenodd" clip-rule="evenodd" d="M92.8158 0.849413C92.2358 4.68541 92.0258 6.00041 91.4458 9.83541C91.4458 9.81841 95.0558 10.3214 95.0658 10.2504C95.6458 6.41441 95.8558 5.09941 96.4358 1.26341C96.4358 1.28041 92.8358 0.778413 92.8158 0.849413Z" fill="#FF231F"/>
<path fill-rule="evenodd" clip-rule="evenodd" d="M116.976 24.7905C113.136 24.2095 111.826 23.9995 107.986 23.4185C108.006 23.4205 107.506 27.0224 107.576 27.0334C111.406 27.6154 112.726 27.8245 116.556 28.4065C116.546 28.4035 117.046 24.8015 116.976 24.7905Z" fill="#FF231F"/>
<path fill-rule="evenodd" clip-rule="evenodd" d="M75.4758 7.12845C78.0058 10.0704 78.8658 11.0874 81.3958 14.0294C81.3858 14.0164 84.1157 11.6134 84.0657 11.5594C81.5357 8.61745 80.6758 7.60045 78.1458 4.65845C78.1558 4.67145 75.4258 7.07445 75.4758 7.12845Z" fill="#FF231F"/>
<path fill-rule="evenodd" clip-rule="evenodd" d="M77.7058 32.0954C74.1858 33.7194 73.8059 33.9674 70.2759 35.5914C70.2959 35.5834 71.8558 38.8684 71.9258 38.8384C75.4458 37.2154 75.8258 36.9664 79.3458 35.3434C79.3258 35.3504 77.7658 32.0654 77.7058 32.0954Z" fill="#FF231F"/>
<path fill-rule="evenodd" clip-rule="evenodd" d="M112.496 10.7414C108.966 12.3654 108.586 12.6134 105.066 14.2374C105.086 14.2294 106.646 17.5144 106.706 17.4844C110.236 15.8614 110.606 15.6124 114.136 13.9894C114.116 13.9964 112.556 10.7114 112.496 10.7414Z" fill="#FF231F"/>
</svg>
