<svg width="140" height="51" viewBox="0 0 140 51" fill="none" xmlns="http://www.w3.org/2000/svg">
<path fill-rule="evenodd" clip-rule="evenodd" d="M0.305908 25.4355C0.305908 16.7465 6.01593 10.5065 14.7059 10.5065C22.2959 10.5065 27.2859 15.3544 28.3359 22.5074L24.0659 23.2755C23.2059 17.9955 20.036 14.5385 14.616 14.5385C8.27597 14.5385 4.72595 19.2905 4.72595 25.4355C4.72595 31.8205 8.22601 36.4765 14.656 36.4765C20.136 36.4765 23.256 32.8755 24.116 27.4035L28.3359 28.1235C27.3759 35.3245 22.246 40.4604 14.656 40.4604C5.87601 40.4604 0.305908 34.1235 0.305908 25.4355Z" fill="black"/>
<path fill-rule="evenodd" clip-rule="evenodd" d="M125.816 35.7084H139.306V39.8844H121.406V11.0824H125.816V35.7084Z" fill="black"/>
<path fill-rule="evenodd" clip-rule="evenodd" d="M63.976 38.1794C66.926 40.6994 68.186 42.2334 71.136 44.7534C71.116 44.7424 73.4461 41.9494 73.3961 41.9024C70.4461 39.3824 69.186 37.8484 66.246 35.3284C66.256 35.3394 63.926 38.1324 63.976 38.1794Z" fill="#FF231F"/>
<path fill-rule="evenodd" clip-rule="evenodd" d="M50.406 40.7175C49.826 44.5535 49.616 45.8684 49.036 49.7034C49.036 49.6864 52.636 50.1895 52.646 50.1185C53.226 46.2825 53.436 44.9675 54.016 41.1315C54.016 41.1485 50.416 40.6465 50.406 40.7175Z" fill="#FF231F"/>
<path fill-rule="evenodd" clip-rule="evenodd" d="M54.4459 0.849413C53.8659 4.68541 53.6559 6.00041 53.0759 9.83541C53.0759 9.81841 56.6759 10.3214 56.6859 10.2504C57.2759 6.41441 57.4759 5.09941 58.0659 1.26341C58.0559 1.28041 54.4559 0.778413 54.4459 0.849413Z" fill="#FF231F"/>
<path fill-rule="evenodd" clip-rule="evenodd" d="M38.786 20.3864C34.946 19.8054 33.6359 19.5954 29.7959 19.0144C29.8159 19.0164 29.316 22.6184 29.386 22.6294C33.216 23.2114 34.536 23.4204 38.366 24.0024C38.356 23.9994 38.856 20.3974 38.786 20.3864Z" fill="#FF231F"/>
<path fill-rule="evenodd" clip-rule="evenodd" d="M78.596 24.7905C74.766 24.2095 73.446 23.9995 69.616 23.4185C69.636 23.4205 69.1259 27.0224 69.1959 27.0334C73.0359 27.6154 74.3459 27.8245 78.1859 28.4065C78.1659 28.4035 78.676 24.8015 78.596 24.7905Z" fill="#FF231F"/>
<path fill-rule="evenodd" clip-rule="evenodd" d="M37.1059 7.12845C39.6259 10.0704 40.4959 11.0874 43.0159 14.0294C43.0059 14.0164 45.7359 11.6134 45.6959 11.5594C43.1659 8.61745 42.3059 7.60045 39.7759 4.65845C39.7859 4.67145 37.0559 7.07445 37.1059 7.12845Z" fill="#FF231F"/>
<path fill-rule="evenodd" clip-rule="evenodd" d="M39.3259 32.0954C35.8059 33.7194 35.426 33.9674 31.906 35.5914C31.926 35.5834 33.4859 38.8684 33.5459 38.8384C37.0759 37.2154 37.446 36.9664 40.976 35.3434C40.956 35.3504 39.3959 32.0654 39.3259 32.0954Z" fill="#FF231F"/>
<path fill-rule="evenodd" clip-rule="evenodd" d="M74.116 10.7414C70.596 12.3654 70.2159 12.6134 66.6959 14.2374C66.7059 14.2294 68.2659 17.5144 68.3359 17.4844C71.8559 15.8614 72.236 15.6124 75.756 13.9894C75.746 13.9964 74.186 10.7114 74.116 10.7414Z" fill="#FF231F"/>
<path fill-rule="evenodd" clip-rule="evenodd" d="M105.766 38.1794C108.716 40.6994 109.966 42.2334 112.916 44.7534C112.906 44.7424 115.236 41.9494 115.176 41.9024C112.226 39.3824 110.976 37.8484 108.026 35.3284C108.036 35.3394 105.706 38.1324 105.766 38.1794Z" fill="#FF231F"/>
<path fill-rule="evenodd" clip-rule="evenodd" d="M92.1859 40.7175C91.6059 44.5535 91.3959 45.8684 90.8159 49.7034C90.8159 49.6864 94.4159 50.1895 94.4259 50.1185C95.0159 46.2825 95.2159 44.9675 95.8059 41.1315C95.7959 41.1485 92.1959 40.6465 92.1859 40.7175Z" fill="#FF231F"/>
<path fill-rule="evenodd" clip-rule="evenodd" d="M96.226 0.849413C95.646 4.68541 95.436 6.00041 94.856 9.83541C94.856 9.81841 98.466 10.3214 98.476 10.2504C99.056 6.41441 99.2659 5.09941 99.8459 1.26341C99.8459 1.28041 96.236 0.778413 96.226 0.849413Z" fill="#FF231F"/>
<path fill-rule="evenodd" clip-rule="evenodd" d="M120.386 24.7905C116.546 24.2095 115.236 23.9995 111.396 23.4185C111.416 23.4205 110.916 27.0224 110.986 27.0334C114.816 27.6154 116.136 27.8245 119.966 28.4065C119.956 28.4035 120.456 24.8015 120.386 24.7905Z" fill="#FF231F"/>
<path fill-rule="evenodd" clip-rule="evenodd" d="M78.8859 7.12845C81.4159 10.0704 82.2759 11.0874 84.8059 14.0294C84.7959 14.0164 87.5259 11.6134 87.4759 11.5594C84.9459 8.61745 84.0859 7.60045 81.5559 4.65845C81.5659 4.67145 78.8359 7.07445 78.8859 7.12845Z" fill="#FF231F"/>
<path fill-rule="evenodd" clip-rule="evenodd" d="M81.116 32.0954C77.586 33.7194 77.2159 33.9674 73.6859 35.5914C73.7059 35.5834 75.2659 38.8684 75.3359 38.8384C78.8559 37.2154 79.236 36.9664 82.756 35.3434C82.736 35.3504 81.176 32.0654 81.116 32.0954Z" fill="#FF231F"/>
<path fill-rule="evenodd" clip-rule="evenodd" d="M115.896 10.7414C112.376 12.3654 111.996 12.6134 108.476 14.2374C108.496 14.2294 110.056 17.5144 110.116 17.4844C113.646 15.8614 114.016 15.6124 117.546 13.9894C117.526 13.9964 115.966 10.7114 115.896 10.7414Z" fill="#FF231F"/>
</svg>
