<svg width="168" height="169" viewBox="0 0 168 169" fill="none" xmlns="http://www.w3.org/2000/svg">
<path fill-rule="evenodd" clip-rule="evenodd" d="M118.349 128.011C128.355 136.601 132.614 141.831 142.618 150.42C142.574 150.382 150.476 140.862 150.292 140.703C140.286 132.112 136.027 126.882 126.021 118.292C126.067 118.33 118.163 127.852 118.349 128.011Z" fill="#FF231F"/>
<path fill-rule="evenodd" clip-rule="evenodd" d="M72.2927 136.662C70.3207 149.736 69.6091 154.22 67.6371 167.295C67.6462 167.237 79.8661 168.949 79.9026 168.708C81.8746 155.632 82.5862 151.149 84.5582 138.074C84.5491 138.133 72.3292 136.42 72.2927 136.662Z" fill="#FF231F"/>
<path fill-rule="evenodd" clip-rule="evenodd" d="M86.0072 0.75461C84.0352 13.8289 83.3236 18.3133 81.3516 31.3876C81.3607 31.3295 93.5806 33.0423 93.6171 32.8009C95.5891 19.7251 96.3007 15.2422 98.2728 2.16641C98.2636 2.226 86.0437 0.513201 86.0072 0.75461Z" fill="#FF231F"/>
<path fill-rule="evenodd" clip-rule="evenodd" d="M32.8794 67.356C19.8689 65.3743 15.4064 64.6592 2.39585 62.6775C2.45363 62.6867 0.749173 74.9665 0.989405 75.0031C14.0015 76.9848 18.4625 77.6999 31.4746 79.6816C31.4153 79.6724 33.1197 67.3927 32.8794 67.356Z" fill="#FF231F"/>
<path fill-rule="evenodd" clip-rule="evenodd" d="M167.943 82.3661C154.932 80.3844 150.47 79.6693 137.459 77.6877C137.517 77.6968 135.813 89.9766 136.053 90.0133C149.065 91.9949 153.526 92.71 166.538 94.6917C166.479 94.6825 168.183 82.4028 167.943 82.3661Z" fill="#FF231F"/>
<path fill-rule="evenodd" clip-rule="evenodd" d="M27.1731 22.1606C35.75 32.1913 38.6678 35.6565 47.2447 45.6872C47.2066 45.6414 56.4677 37.4503 56.3096 37.2654C47.7327 27.2347 44.815 23.7694 36.2381 13.7387C36.2761 13.783 27.015 21.9742 27.1731 22.1606Z" fill="#FF231F"/>
<path fill-rule="evenodd" clip-rule="evenodd" d="M34.7283 107.269C22.776 112.803 21.4958 113.651 9.54504 119.186C9.59826 119.161 14.894 130.359 15.116 130.257C27.0668 124.721 28.347 123.875 40.2993 118.341C40.2461 118.365 34.9488 107.167 34.7283 107.269Z" fill="#FF231F"/>
<path fill-rule="evenodd" clip-rule="evenodd" d="M152.735 34.477C140.783 40.0111 139.503 40.8591 127.552 46.3931C127.605 46.3687 132.901 57.5667 133.123 57.4643C145.074 51.9287 146.354 51.0823 158.306 45.5482C158.253 45.5726 152.956 34.3746 152.735 34.477Z" fill="#FF231F"/>
</svg>
