<svg width="150" height="50" viewBox="0 0 150 50" fill="none" xmlns="http://www.w3.org/2000/svg">
<path fill-rule="evenodd" clip-rule="evenodd" d="M4.5658 39.1634H0.285889V10.3604H7.15588L12.7659 24.4264C13.5859 26.5384 15.1659 30.7634 16.2759 34.2194C17.4759 30.8104 19.0158 26.6834 19.9258 24.2824L25.5359 10.3604H31.9258V39.1634H27.5059V24.9064C27.5059 21.6424 27.6558 17.3214 27.6958 14.0574H27.6559C26.4559 17.7054 24.7758 22.5064 23.1858 26.5864L18.0059 39.1634H13.9758L8.92578 26.3934C7.24578 22.0744 5.7658 17.6574 4.5658 14.0574H4.51587C4.56587 17.3694 4.5658 21.5454 4.5658 24.9064V39.1634Z" fill="black"/>
<path fill-rule="evenodd" clip-rule="evenodd" d="M134.926 24.8574C133.096 21.8814 130.796 17.7534 129.206 14.6804H129.116C129.206 17.9924 129.256 22.2654 129.256 25.3854V39.1624H124.986V10.3594H131.326L138.956 22.8414C141.216 26.5854 143.466 30.7134 145.096 33.7384H145.196C145.146 30.6174 145.096 27.0654 145.096 24.1374V10.3594H149.326V39.1624H143.806L134.926 24.8574Z" fill="black"/>
<path fill-rule="evenodd" clip-rule="evenodd" d="M67.5658 37.4574C70.5158 39.9774 71.7659 41.5114 74.7159 44.0314C74.7059 44.0204 77.0359 41.2274 76.9759 41.1804C74.0259 38.6604 72.7758 37.1264 69.8258 34.6064C69.8358 34.6174 67.5058 37.4104 67.5658 37.4574Z" fill="#FF231F"/>
<path fill-rule="evenodd" clip-rule="evenodd" d="M53.9858 39.9953C53.4058 43.8313 53.1958 45.1463 52.6158 48.9813C52.6158 48.9643 56.2158 49.4673 56.2258 49.3963C56.8158 45.5603 57.0258 44.2453 57.6058 40.4093C57.5958 40.4263 53.9958 39.9243 53.9858 39.9953Z" fill="#FF231F"/>
<path fill-rule="evenodd" clip-rule="evenodd" d="M58.0259 0.127367C57.4459 3.96337 57.2359 5.27836 56.6559 9.11336C56.6559 9.09636 60.2659 9.59937 60.2759 9.52837C60.8559 5.69237 61.0659 4.37737 61.6459 0.541369C61.6459 0.558369 58.0459 0.0563674 58.0259 0.127367Z" fill="#FF231F"/>
<path fill-rule="evenodd" clip-rule="evenodd" d="M42.3659 19.6644C38.5359 19.0834 37.2159 18.8734 33.3859 18.2924C33.3959 18.2944 32.8958 21.8974 32.9658 21.9074C36.8058 22.4894 38.1158 22.6984 41.9558 23.2804C41.9358 23.2774 42.4359 19.6754 42.3659 19.6644Z" fill="#FF231F"/>
<path fill-rule="evenodd" clip-rule="evenodd" d="M82.1858 24.0684C78.3458 23.4874 77.0358 23.2774 73.1958 22.6964C73.2158 22.6984 72.7159 26.3014 72.7859 26.3114C76.6159 26.8934 77.9359 27.1024 81.7659 27.6844C81.7559 27.6814 82.2558 24.0794 82.1858 24.0684Z" fill="#FF231F"/>
<path fill-rule="evenodd" clip-rule="evenodd" d="M40.6857 6.40738C43.2157 9.34938 44.0758 10.3664 46.6058 13.3084C46.5958 13.2954 49.3258 10.8924 49.2758 10.8384C46.7458 7.89638 45.8858 6.87937 43.3558 3.93637C43.3658 3.95037 40.6357 6.35338 40.6857 6.40738Z" fill="#FF231F"/>
<path fill-rule="evenodd" clip-rule="evenodd" d="M42.9159 31.3734C39.3959 32.9974 39.0158 33.2453 35.4858 34.8693C35.5058 34.8613 37.0659 38.1464 37.1359 38.1164C40.6559 36.4934 41.0358 36.2444 44.5558 34.6214C44.5358 34.6284 42.9759 31.3434 42.9159 31.3734Z" fill="#FF231F"/>
<path fill-rule="evenodd" clip-rule="evenodd" d="M77.6958 10.0194C74.1758 11.6434 73.7959 11.8914 70.2759 13.5154C70.2959 13.5074 71.8559 16.7924 71.9159 16.7624C75.4459 15.1394 75.8158 14.8904 79.3458 13.2674C79.3258 13.2744 77.7658 9.98937 77.6958 10.0194Z" fill="#FF231F"/>
<path fill-rule="evenodd" clip-rule="evenodd" d="M109.346 37.4574C112.296 39.9774 113.556 41.5114 116.506 44.0314C116.486 44.0204 118.816 41.2274 118.766 41.1804C115.816 38.6604 114.556 37.1264 111.606 34.6064C111.626 34.6174 109.296 37.4104 109.346 37.4574Z" fill="#FF231F"/>
<path fill-rule="evenodd" clip-rule="evenodd" d="M95.7659 39.9953C95.1859 43.8313 94.9759 45.1463 94.3959 48.9813C94.3959 48.9643 98.0059 49.4673 98.0159 49.3963C98.5959 45.5603 98.8059 44.2453 99.3859 40.4093C99.3859 40.4263 95.7859 39.9243 95.7659 39.9953Z" fill="#FF231F"/>
<path fill-rule="evenodd" clip-rule="evenodd" d="M99.8158 0.127367C99.2358 3.96337 99.0258 5.27836 98.4458 9.11336C98.4458 9.09636 102.046 9.59937 102.056 9.52837C102.636 5.69237 102.846 4.37737 103.426 0.541369C103.426 0.558369 99.8258 0.0563674 99.8158 0.127367Z" fill="#FF231F"/>
<path fill-rule="evenodd" clip-rule="evenodd" d="M123.966 24.0684C120.136 23.4874 118.816 23.2774 114.986 22.6964C114.996 22.6984 114.496 26.3014 114.566 26.3114C118.406 26.8934 119.716 27.1024 123.556 27.6844C123.536 27.6814 124.036 24.0794 123.966 24.0684Z" fill="#FF231F"/>
<path fill-rule="evenodd" clip-rule="evenodd" d="M82.4658 6.40738C84.9958 9.34938 85.8558 10.3664 88.3858 13.3084C88.3758 13.2954 91.1057 10.8924 91.0557 10.8384C88.5357 7.89638 87.6658 6.87937 85.1458 3.93637C85.1558 3.95037 82.4258 6.35338 82.4658 6.40738Z" fill="#FF231F"/>
<path fill-rule="evenodd" clip-rule="evenodd" d="M84.6958 31.3734C81.1758 32.9974 80.7959 33.2453 77.2759 34.8693C77.2859 34.8613 78.8459 38.1464 78.9159 38.1164C82.4359 36.4934 82.8158 36.2444 86.3358 34.6214C86.3258 34.6284 84.7658 31.3434 84.6958 31.3734Z" fill="#FF231F"/>
<path fill-rule="evenodd" clip-rule="evenodd" d="M119.486 10.0194C115.966 11.6434 115.586 11.8914 112.056 13.5154C112.076 13.5074 113.636 16.7924 113.706 16.7624C117.226 15.1394 117.606 14.8904 121.126 13.2674C121.106 13.2744 119.546 9.98937 119.486 10.0194Z" fill="#FF231F"/>
</svg>
