<svg width="136" height="51" viewBox="0 0 136 51" fill="none" xmlns="http://www.w3.org/2000/svg">
<path fill-rule="evenodd" clip-rule="evenodd" d="M86.444 28.9973H92.277C93.637 38.7503 100.701 44.8093 110.712 44.8093C121.888 44.8093 129.398 37.1012 129.398 25.6282C129.398 14.2402 121.888 6.58923 110.712 6.58923C100.709 6.58923 93.646 12.6132 92.277 22.3102L86.444 22.3073C85.087 12.6113 78.023 6.58923 68.009 6.58923C58.006 6.58923 50.942 12.6132 49.573 22.3102L43.741 22.3073C42.383 12.6113 35.319 6.58923 25.305 6.58923C14.129 6.58923 6.619 14.2402 6.619 25.6282C6.619 37.1012 14.129 44.8093 25.305 44.8093C35.317 44.8093 42.38 38.7503 43.741 28.9973H49.573C50.934 38.7503 57.997 44.8093 68.009 44.8093C78.02 44.8093 85.084 38.7503 86.444 28.9973ZM110.712 50.6993C101.143 50.6993 93.449 46.2373 89.36 38.8043C85.272 46.2373 77.577 50.6993 68.009 50.6993C58.44 50.6993 50.745 46.2373 46.657 38.8043C42.569 46.2373 34.874 50.6993 25.305 50.6993C10.836 50.6993 0.729004 40.3902 0.729004 25.6282C0.729004 10.9512 10.836 0.69928 25.305 0.69928C34.878 0.69928 42.574 5.14225 46.661 12.5443C50.752 5.14225 58.446 0.69928 68.009 0.69928C77.581 0.69928 85.278 5.14225 89.365 12.5443C93.456 5.14225 101.149 0.69928 110.712 0.69928C125.181 0.69928 135.288 10.9512 135.288 25.6282C135.288 40.3902 125.181 50.6993 110.712 50.6993Z" fill="#FF231F"/>
</svg>
