<svg width="148" height="50" viewBox="0 0 148 50" fill="none" xmlns="http://www.w3.org/2000/svg">
<path fill-rule="evenodd" clip-rule="evenodd" d="M4.49597 26.7204V35.6014H12.896C16.686 35.6014 18.366 33.6334 18.366 31.1844C18.366 28.4964 16.6459 26.7204 12.7059 26.7204H4.49597ZM4.49597 14.4794V23.2644H11.646C14.916 23.2644 17.026 22.0164 17.026 18.7034C17.026 16.0154 15.446 14.4794 11.886 14.4794H4.49597ZM0.0859375 10.6384H11.7959C18.2759 10.6384 21.396 13.2794 21.396 17.9834C21.396 21.2964 19.956 23.6004 17.126 24.7044V24.8004C21.056 25.6644 22.8359 27.9204 22.8359 31.6644C22.8359 36.0814 19.9059 39.4414 13.0959 39.4414H0.0859375V10.6384Z" fill="black"/>
<path fill-rule="evenodd" clip-rule="evenodd" d="M120.166 39.4414H115.896V10.6384H122.766L128.376 24.7044C129.196 26.8164 130.776 31.0404 131.886 34.4974C133.086 31.0884 134.616 26.9604 135.526 24.5604L141.146 10.6384H147.536V39.4414H143.116V25.1844C143.116 21.9204 143.256 17.5994 143.306 14.3354H143.256C142.056 17.9834 140.376 22.7844 138.796 26.8644L133.606 39.4414H129.576L124.536 26.6724C122.856 22.3524 121.366 17.9354 120.166 14.3354H120.126C120.166 17.6474 120.166 21.8234 120.166 25.1844V39.4414Z" fill="black"/>
<path fill-rule="evenodd" clip-rule="evenodd" d="M58.476 37.7354C61.426 40.2554 62.676 41.7894 65.626 44.3094C65.616 44.2984 67.946 41.5054 67.896 41.4584C64.946 38.9384 63.686 37.4044 60.736 34.8844C60.746 34.8954 58.416 37.6884 58.476 37.7354Z" fill="#FF231F"/>
<path fill-rule="evenodd" clip-rule="evenodd" d="M44.896 40.2734C44.316 44.1094 44.106 45.4244 43.526 49.2594C43.526 49.2424 47.136 49.7454 47.146 49.6744C47.726 45.8384 47.936 44.5234 48.516 40.6874C48.516 40.7044 44.906 40.2024 44.896 40.2734Z" fill="#FF231F"/>
<path fill-rule="evenodd" clip-rule="evenodd" d="M48.9459 0.405383C48.3559 4.24138 48.1459 5.55637 47.5659 9.39137C47.5759 9.37437 51.1759 9.87738 51.1859 9.80638C51.7659 5.97038 51.9759 4.65538 52.5559 0.819384C52.5559 0.836384 48.9559 0.334383 48.9459 0.405383Z" fill="#FF231F"/>
<path fill-rule="evenodd" clip-rule="evenodd" d="M33.276 19.9424C29.446 19.3614 28.1259 19.1514 24.2959 18.5704C24.3059 18.5724 23.806 22.1744 23.876 22.1854C27.716 22.7674 29.026 22.9764 32.866 23.5584C32.846 23.5554 33.346 19.9534 33.276 19.9424Z" fill="#FF231F"/>
<path fill-rule="evenodd" clip-rule="evenodd" d="M73.096 24.3464C69.256 23.7654 67.946 23.5554 64.106 22.9744C64.126 22.9764 63.6259 26.5784 63.6959 26.5894C67.5259 27.1714 68.8459 27.3804 72.6859 27.9624C72.6659 27.9594 73.166 24.3574 73.096 24.3464Z" fill="#FF231F"/>
<path fill-rule="evenodd" clip-rule="evenodd" d="M31.5959 6.68539C34.1259 9.62739 34.9859 10.6444 37.5159 13.5864C37.5059 13.5734 40.2359 11.1704 40.1859 11.1164C37.6559 8.17439 36.7959 7.15739 34.2659 4.21539C34.2759 4.22839 31.5459 6.63139 31.5959 6.68539Z" fill="#FF231F"/>
<path fill-rule="evenodd" clip-rule="evenodd" d="M33.8259 31.6514C30.3059 33.2754 29.926 33.5234 26.406 35.1474C26.416 35.1394 27.9759 38.4244 28.0459 38.3944C31.5659 36.7714 31.9459 36.5224 35.4659 34.8994C35.4559 34.9064 33.8859 31.6214 33.8259 31.6514Z" fill="#FF231F"/>
<path fill-rule="evenodd" clip-rule="evenodd" d="M68.616 10.2984C65.086 11.9224 64.7159 12.1704 61.1859 13.7944C61.2059 13.7864 62.7659 17.0714 62.8259 17.0414C66.3559 15.4184 66.736 15.1694 70.256 13.5464C70.236 13.5534 68.676 10.2684 68.616 10.2984Z" fill="#FF231F"/>
<path fill-rule="evenodd" clip-rule="evenodd" d="M100.256 37.7354C103.206 40.2554 104.466 41.7894 107.416 44.3094C107.396 44.2984 109.726 41.5054 109.676 41.4584C106.726 38.9384 105.466 37.4044 102.516 34.8844C102.536 34.8954 100.206 37.6884 100.256 37.7354Z" fill="#FF231F"/>
<path fill-rule="evenodd" clip-rule="evenodd" d="M86.6859 40.2734C86.0959 44.1094 85.8859 45.4244 85.3059 49.2594C85.3159 49.2424 88.9159 49.7454 88.9259 49.6744C89.5059 45.8384 89.7159 44.5234 90.2959 40.6874C90.2959 40.7044 86.6959 40.2024 86.6859 40.2734Z" fill="#FF231F"/>
<path fill-rule="evenodd" clip-rule="evenodd" d="M90.726 0.405383C90.146 4.24138 89.936 5.55637 89.356 9.39137C89.356 9.37437 92.9559 9.87738 92.9659 9.80638C93.5459 5.97038 93.7559 4.65538 94.3359 0.819384C94.3359 0.836384 90.736 0.334383 90.726 0.405383Z" fill="#FF231F"/>
<path fill-rule="evenodd" clip-rule="evenodd" d="M114.876 24.3464C111.046 23.7654 109.726 23.5554 105.896 22.9744C105.906 22.9764 105.406 26.5784 105.476 26.5894C109.316 27.1714 110.626 27.3804 114.466 27.9624C114.446 27.9594 114.946 24.3574 114.876 24.3464Z" fill="#FF231F"/>
<path fill-rule="evenodd" clip-rule="evenodd" d="M73.3859 6.68539C75.9059 9.62739 76.7658 10.6444 79.2958 13.5864C79.2858 13.5734 82.0159 11.1704 81.9659 11.1164C79.4459 8.17439 78.5859 7.15739 76.0559 4.21539C76.0659 4.22839 73.3359 6.63139 73.3859 6.68539Z" fill="#FF231F"/>
<path fill-rule="evenodd" clip-rule="evenodd" d="M75.606 31.6514C72.086 33.2754 71.7059 33.5234 68.1859 35.1474C68.1959 35.1394 69.7659 38.4244 69.8259 38.3944C73.3459 36.7714 73.726 36.5224 77.246 34.8994C77.236 34.9064 75.676 31.6214 75.606 31.6514Z" fill="#FF231F"/>
<path fill-rule="evenodd" clip-rule="evenodd" d="M110.396 10.2984C106.876 11.9224 106.496 12.1704 102.976 13.7944C102.986 13.7864 104.546 17.0714 104.616 17.0414C108.136 15.4184 108.516 15.1694 112.036 13.5464C112.026 13.5534 110.456 10.2684 110.396 10.2984Z" fill="#FF231F"/>
</svg>
