<svg width="206" height="75" viewBox="0 0 206 75" fill="none" xmlns="http://www.w3.org/2000/svg">
<path fill-rule="evenodd" clip-rule="evenodd" d="M0.537048 37.2292C0.537048 24.2092 9.09703 14.8583 22.116 14.8583C33.482 14.8583 40.962 22.1233 42.545 32.8423L36.144 33.9922C34.849 26.0802 30.102 20.9012 21.973 20.9012C12.478 20.9012 7.15601 28.0222 7.15601 37.2292C7.15601 46.7962 12.406 53.7733 22.045 53.7733C30.245 53.7733 34.92 48.3783 36.215 40.1793L42.545 41.2563C41.107 52.0463 33.41 59.7433 22.045 59.7433C8.88204 59.7433 0.537048 50.2482 0.537048 37.2292Z" fill="black"/>
<path fill-rule="evenodd" clip-rule="evenodd" d="M161.146 58.8802H126.116V52.6232L152.516 22.1232L152.376 21.7653C148.706 21.8353 144.316 21.9803 140.286 21.9803H126.906V15.7213H161.006V21.9083L134.606 52.4783L134.746 52.8383C138.416 52.7663 142.736 52.6232 146.396 52.6232H161.146V58.8802Z" fill="black"/>
<path fill-rule="evenodd" clip-rule="evenodd" d="M182.246 58.8802V42.8392L165.556 15.8652V15.7213H172.826L185.556 36.7263L198.216 15.7213H205.476V15.8652L188.866 42.8392V58.8802H182.246Z" fill="black"/>
<path fill-rule="evenodd" clip-rule="evenodd" d="M99.246 56.3253C103.666 60.1013 105.546 62.4003 109.966 66.1763C109.946 66.1593 113.436 61.9742 113.356 61.9042C108.936 58.1282 107.056 55.8293 102.636 52.0533C102.656 52.0703 99.166 56.2553 99.246 56.3253Z" fill="#FF231F"/>
<path fill-rule="evenodd" clip-rule="evenodd" d="M78.906 60.1282C78.026 65.8752 77.716 67.8463 76.846 73.5933C76.846 73.5683 82.2461 74.3202 82.2661 74.2142C83.1361 68.4672 83.446 66.4963 84.316 60.7493C84.316 60.7743 78.916 60.0222 78.906 60.1282Z" fill="#FF231F"/>
<path fill-rule="evenodd" clip-rule="evenodd" d="M84.956 0.388236C84.086 6.13524 83.7761 8.10626 82.9061 13.8533C82.9061 13.8283 88.306 14.5802 88.316 14.4742C89.196 8.72723 89.506 6.75627 90.376 1.00927C90.376 1.03427 84.976 0.282236 84.956 0.388236Z" fill="#FF231F"/>
<path fill-rule="evenodd" clip-rule="evenodd" d="M61.496 29.6642C55.745 28.7932 53.774 28.4793 48.027 27.6083C48.052 27.6123 47.3 33.0093 47.406 33.0253C53.153 33.8973 55.124 34.2113 60.866 35.0823C60.846 35.0783 61.596 29.6802 61.496 29.6642Z" fill="#FF231F"/>
<path fill-rule="evenodd" clip-rule="evenodd" d="M121.156 36.2623C115.406 35.3913 113.436 35.0772 107.686 34.2062C107.716 34.2102 106.956 39.6072 107.066 39.6232C112.816 40.4952 114.786 40.8092 120.526 41.6802C120.506 41.6762 121.256 36.2783 121.156 36.2623Z" fill="#FF231F"/>
<path fill-rule="evenodd" clip-rule="evenodd" d="M58.976 9.79828C62.756 14.2073 64.046 15.7303 67.836 20.1393C67.816 20.1193 71.916 16.5193 71.846 16.4373C68.056 12.0293 66.766 10.5053 62.976 6.09625C62.996 6.11625 58.906 9.71628 58.976 9.79828Z" fill="#FF231F"/>
<path fill-rule="evenodd" clip-rule="evenodd" d="M62.306 47.2083C57.03 49.6413 56.464 50.0132 51.185 52.4462C51.209 52.4352 53.548 57.3573 53.646 57.3123C58.926 54.8793 59.486 54.5073 64.766 52.0743C64.746 52.0853 62.406 47.1633 62.306 47.2083Z" fill="#FF231F"/>
<path fill-rule="evenodd" clip-rule="evenodd" d="M114.436 15.2112C109.156 17.6442 108.586 18.0163 103.306 20.4493C103.336 20.4383 105.676 25.3602 105.776 25.3152C111.046 22.8822 111.616 22.5103 116.896 20.0773C116.876 20.0883 114.536 15.1662 114.436 15.2112Z" fill="#FF231F"/>
</svg>
