<svg width="148" height="50" viewBox="0 0 148 50" fill="none" xmlns="http://www.w3.org/2000/svg">
<path fill-rule="evenodd" clip-rule="evenodd" d="M0.325928 25.1454C0.325928 16.4084 5.16593 9.83237 14.5759 9.83237C22.3059 9.83237 26.7259 14.3444 27.8259 21.3054L23.6959 22.1684C22.5959 16.6964 19.5259 13.8164 14.4359 13.8164C7.71591 13.8164 4.78601 18.6164 4.78601 25.1454C4.78601 31.0494 7.80591 35.8024 15.0559 35.8024C21.8259 35.8024 23.7959 32.5384 23.7959 28.9854V28.2654H14.2959V24.3294H27.976V39.1624H23.7959V32.3464H23.746C22.696 36.4264 19.526 39.6424 13.766 39.6424C5.26599 39.6424 0.325928 33.5454 0.325928 25.1454Z" fill="black"/>
<path fill-rule="evenodd" clip-rule="evenodd" d="M125.836 14.1044V35.4184H132.406C139.756 35.4184 142.926 31.2904 142.926 24.5694C142.926 17.8964 139.516 14.1044 132.076 14.1044H125.836ZM121.416 10.3594H132.646C142.446 10.3594 147.296 15.9764 147.296 24.5694C147.296 33.1624 142.056 39.1624 132.846 39.1624H121.416V10.3594Z" fill="black"/>
<path fill-rule="evenodd" clip-rule="evenodd" d="M63.996 37.4574C66.946 39.9774 68.196 41.5114 71.146 44.0314C71.136 44.0204 73.4661 41.2274 73.4161 41.1804C70.4661 38.6604 69.206 37.1264 66.256 34.6064C66.266 34.6174 63.936 37.4104 63.996 37.4574Z" fill="#FF231F"/>
<path fill-rule="evenodd" clip-rule="evenodd" d="M50.416 39.9953C49.836 43.8313 49.6259 45.1463 49.0459 48.9813C49.0459 48.9643 52.656 49.4673 52.666 49.3963C53.246 45.5603 53.456 44.2453 54.036 40.4093C54.036 40.4263 50.426 39.9243 50.416 39.9953Z" fill="#FF231F"/>
<path fill-rule="evenodd" clip-rule="evenodd" d="M54.4659 0.127367C53.8859 3.96337 53.6759 5.27836 53.0859 9.11336C53.0959 9.09636 56.6959 9.59937 56.7059 9.52837C57.2859 5.69237 57.4959 4.37737 58.0759 0.541369C58.0759 0.558369 54.4759 0.0563674 54.4659 0.127367Z" fill="#FF231F"/>
<path fill-rule="evenodd" clip-rule="evenodd" d="M38.7959 19.6644C34.9659 19.0834 33.6459 18.8734 29.8159 18.2924C29.8359 18.2944 29.326 21.8974 29.396 21.9074C33.236 22.4894 34.546 22.6984 38.386 23.2804C38.366 23.2774 38.8759 19.6754 38.7959 19.6644Z" fill="#FF231F"/>
<path fill-rule="evenodd" clip-rule="evenodd" d="M78.616 24.0684C74.776 23.4874 73.466 23.2774 69.626 22.6964C69.646 22.6984 69.146 26.3014 69.216 26.3114C73.046 26.8934 74.3659 27.1024 78.2059 27.6844C78.1859 27.6814 78.686 24.0794 78.616 24.0684Z" fill="#FF231F"/>
<path fill-rule="evenodd" clip-rule="evenodd" d="M37.1159 6.40738C39.6459 9.34938 40.506 10.3664 43.036 13.3084C43.026 13.2954 45.7559 10.8924 45.7059 10.8384C43.1759 7.89638 42.316 6.87937 39.786 3.93637C39.806 3.95037 37.0759 6.35338 37.1159 6.40738Z" fill="#FF231F"/>
<path fill-rule="evenodd" clip-rule="evenodd" d="M39.3459 31.3734C35.8259 32.9974 35.4459 33.2453 31.9259 34.8693C31.9359 34.8613 33.4959 38.1464 33.5659 38.1164C37.0859 36.4934 37.466 36.2444 40.986 34.6214C40.976 34.6284 39.4059 31.3434 39.3459 31.3734Z" fill="#FF231F"/>
<path fill-rule="evenodd" clip-rule="evenodd" d="M74.136 10.0194C70.606 11.6434 70.2359 11.8914 66.7059 13.5154C66.7259 13.5074 68.2859 16.7924 68.3459 16.7624C71.8759 15.1394 72.256 14.8904 75.776 13.2674C75.756 13.2744 74.196 9.98937 74.136 10.0194Z" fill="#FF231F"/>
<path fill-rule="evenodd" clip-rule="evenodd" d="M105.776 37.4574C108.726 39.9774 109.986 41.5114 112.936 44.0314C112.916 44.0204 115.246 41.2274 115.196 41.1804C112.246 38.6604 110.986 37.1264 108.036 34.6064C108.056 34.6174 105.726 37.4104 105.776 37.4574Z" fill="#FF231F"/>
<path fill-rule="evenodd" clip-rule="evenodd" d="M92.2059 39.9953C91.6259 43.8313 91.4159 45.1463 90.8259 48.9813C90.8359 48.9643 94.4359 49.4673 94.4459 49.3963C95.0259 45.5603 95.2359 44.2453 95.8159 40.4093C95.8159 40.4263 92.2159 39.9243 92.2059 39.9953Z" fill="#FF231F"/>
<path fill-rule="evenodd" clip-rule="evenodd" d="M96.246 0.127367C95.666 3.96337 95.456 5.27836 94.876 9.11336C94.876 9.09636 98.476 9.59937 98.486 9.52837C99.066 5.69237 99.276 4.37737 99.866 0.541369C99.856 0.558369 96.256 0.0563674 96.246 0.127367Z" fill="#FF231F"/>
<path fill-rule="evenodd" clip-rule="evenodd" d="M120.396 24.0684C116.566 23.4874 115.246 23.2774 111.416 22.6964C111.426 22.6984 110.926 26.3014 110.996 26.3114C114.836 26.8934 116.146 27.1024 119.986 27.6844C119.966 27.6814 120.466 24.0794 120.396 24.0684Z" fill="#FF231F"/>
<path fill-rule="evenodd" clip-rule="evenodd" d="M78.906 6.40738C81.426 9.34938 82.2859 10.3664 84.8159 13.3084C84.8059 13.2954 87.5359 10.8924 87.4859 10.8384C84.9659 7.89638 84.1059 6.87937 81.5759 3.93637C81.5859 3.95037 78.856 6.35338 78.906 6.40738Z" fill="#FF231F"/>
<path fill-rule="evenodd" clip-rule="evenodd" d="M81.126 31.3734C77.606 32.9974 77.2259 33.2453 73.7059 34.8693C73.7259 34.8613 75.2859 38.1464 75.3459 38.1164C78.8659 36.4934 79.246 36.2444 82.776 34.6214C82.756 34.6284 81.196 31.3434 81.126 31.3734Z" fill="#FF231F"/>
<path fill-rule="evenodd" clip-rule="evenodd" d="M115.916 10.0194C112.396 11.6434 112.016 11.8914 108.496 13.5154C108.506 13.5074 110.066 16.7924 110.136 16.7624C113.656 15.1394 114.036 14.8904 117.556 13.2674C117.546 13.2744 115.976 9.98937 115.916 10.0194Z" fill="#FF231F"/>
</svg>
