<svg width="141" height="50" viewBox="0 0 141 50" fill="none" xmlns="http://www.w3.org/2000/svg">
<path fill-rule="evenodd" clip-rule="evenodd" d="M5.36584 14.4624V23.3434H12.5658C16.2558 23.3434 18.4159 21.7594 18.4159 18.8304C18.4159 16.1434 16.9758 14.4624 12.8058 14.4624H5.36584ZM10.9758 27.2794H5.36584V39.3284H0.945801V10.5254H13.0458C19.7158 10.5254 22.7859 13.7424 22.7859 18.7344C22.7859 23.2954 20.2459 26.1754 15.6359 27.0394L24.6158 39.2334V39.3284H19.2859L10.9758 27.2794Z" fill="black"/>
<path fill-rule="evenodd" clip-rule="evenodd" d="M117.676 10.5254H140.666V14.7024H131.406V39.3284H126.986V14.7024H117.676V10.5254Z" fill="black"/>
<path fill-rule="evenodd" clip-rule="evenodd" d="M60.2559 37.6234C63.1959 40.1434 64.4559 41.6774 67.4059 44.1974C67.3959 44.1864 69.7259 41.3934 69.6659 41.3464C66.7159 38.8264 65.4659 37.2924 62.5159 34.7724C62.5259 34.7834 60.1959 37.5764 60.2559 37.6234Z" fill="#FF231F"/>
<path fill-rule="evenodd" clip-rule="evenodd" d="M46.6758 40.1604C46.0958 43.9954 45.8858 45.3114 45.3058 49.1464C45.3058 49.1294 48.9059 49.6324 48.9159 49.5614C49.4959 45.7254 49.7059 44.4104 50.2859 40.5744C50.2859 40.5914 46.6858 40.0894 46.6758 40.1604Z" fill="#FF231F"/>
<path fill-rule="evenodd" clip-rule="evenodd" d="M50.7158 0.292406C50.1358 4.12741 49.9258 5.44337 49.3458 9.27837C49.3458 9.26137 52.9458 9.76441 52.9558 9.69341C53.5458 5.85741 53.7558 4.54241 54.3358 0.706408C54.3258 0.723408 50.7258 0.221406 50.7158 0.292406Z" fill="#FF231F"/>
<path fill-rule="evenodd" clip-rule="evenodd" d="M35.0558 19.8304C31.2258 19.2494 29.9058 19.0394 26.0658 18.4584C26.0858 18.4604 25.5859 22.0634 25.6559 22.0734C29.4959 22.6554 30.8059 22.8644 34.6459 23.4464C34.6259 23.4434 35.1258 19.8414 35.0558 19.8304Z" fill="#FF231F"/>
<path fill-rule="evenodd" clip-rule="evenodd" d="M74.8759 24.2334C71.0359 23.6524 69.7159 23.4424 65.8859 22.8614C65.9059 22.8634 65.3958 26.4664 65.4658 26.4764C69.3058 27.0584 70.6258 27.2674 74.4558 27.8494C74.4358 27.8464 74.9459 24.2444 74.8759 24.2334Z" fill="#FF231F"/>
<path fill-rule="evenodd" clip-rule="evenodd" d="M33.3758 6.57239C35.9058 9.51439 36.7657 10.5314 39.2957 13.4734C39.2757 13.4604 42.0058 11.0574 41.9658 11.0034C39.4358 8.06142 38.5757 7.04442 36.0457 4.10242C36.0557 4.11542 33.3258 6.51839 33.3758 6.57239Z" fill="#FF231F"/>
<path fill-rule="evenodd" clip-rule="evenodd" d="M35.6058 31.5384C32.0758 33.1624 31.6958 33.4104 28.1758 35.0344C28.1958 35.0264 29.7558 38.3114 29.8158 38.2814C33.3458 36.6584 33.7158 36.4094 37.2458 34.7864C37.2258 34.7934 35.6658 31.5084 35.6058 31.5384Z" fill="#FF231F"/>
<path fill-rule="evenodd" clip-rule="evenodd" d="M70.3859 10.1854C66.8659 11.8094 66.4858 12.0574 62.9658 13.6814C62.9758 13.6734 64.5458 16.9584 64.6058 16.9284C68.1258 15.3054 68.5059 15.0564 72.0259 13.4334C72.0159 13.4404 70.4559 10.1554 70.3859 10.1854Z" fill="#FF231F"/>
<path fill-rule="evenodd" clip-rule="evenodd" d="M102.036 37.6234C104.986 40.1434 106.236 41.6774 109.186 44.1974C109.176 44.1864 111.506 41.3934 111.446 41.3464C108.506 38.8264 107.246 37.2924 104.296 34.7724C104.306 34.7834 101.976 37.5764 102.036 37.6234Z" fill="#FF231F"/>
<path fill-rule="evenodd" clip-rule="evenodd" d="M88.4558 40.1604C87.8758 43.9954 87.6658 45.3114 87.0858 49.1464C87.0858 49.1294 90.6858 49.6324 90.6958 49.5614C91.2858 45.7254 91.4958 44.4104 92.0758 40.5744C92.0658 40.5914 88.4658 40.0894 88.4558 40.1604Z" fill="#FF231F"/>
<path fill-rule="evenodd" clip-rule="evenodd" d="M92.5059 0.292406C91.9159 4.12741 91.7059 5.44337 91.1259 9.27837C91.1359 9.26137 94.7358 9.76441 94.7458 9.69341C95.3258 5.85741 95.5358 4.54241 96.1158 0.706408C96.1158 0.723408 92.5159 0.221406 92.5059 0.292406Z" fill="#FF231F"/>
<path fill-rule="evenodd" clip-rule="evenodd" d="M116.656 24.2334C112.816 23.6524 111.506 23.4424 107.666 22.8614C107.686 22.8634 107.186 26.4664 107.256 26.4764C111.086 27.0584 112.406 27.2674 116.236 27.8494C116.226 27.8464 116.726 24.2444 116.656 24.2334Z" fill="#FF231F"/>
<path fill-rule="evenodd" clip-rule="evenodd" d="M75.1558 6.57239C77.6858 9.51439 78.5458 10.5314 81.0758 13.4734C81.0658 13.4604 83.7958 11.0574 83.7458 11.0034C81.2158 8.06142 80.3558 7.04442 77.8258 4.10242C77.8358 4.11542 75.1058 6.51839 75.1558 6.57239Z" fill="#FF231F"/>
<path fill-rule="evenodd" clip-rule="evenodd" d="M77.3859 31.5384C73.8659 33.1624 73.4858 33.4104 69.9558 35.0344C69.9758 35.0264 71.5358 38.3114 71.6058 38.2814C75.1258 36.6584 75.5059 36.4094 79.0259 34.7864C79.0059 34.7934 77.4459 31.5084 77.3859 31.5384Z" fill="#FF231F"/>
<path fill-rule="evenodd" clip-rule="evenodd" d="M112.176 10.1854C108.646 11.8094 108.266 12.0574 104.746 13.6814C104.766 13.6734 106.326 16.9584 106.386 16.9284C109.916 15.3054 110.286 15.0564 113.816 13.4334C113.796 13.4404 112.236 10.1554 112.176 10.1854Z" fill="#FF231F"/>
</svg>
