<svg width="328" height="111" viewBox="0 0 328 111" fill="none" xmlns="http://www.w3.org/2000/svg">
<path fill-rule="evenodd" clip-rule="evenodd" d="M137.624 15.7053C137.624 7.01628 143.337 0.776276 152.024 0.776276C159.61 0.776276 164.603 5.62427 165.658 12.7773L161.386 13.5453C160.522 8.26527 157.354 4.80827 151.929 4.80827C145.593 4.80827 142.04 9.56028 142.04 15.7053C142.04 22.0903 145.544 26.7463 151.978 26.7463C157.449 26.7463 160.569 23.1453 161.434 17.6733L165.658 18.3933C164.698 25.5943 159.562 30.7303 151.978 30.7303C143.192 30.7303 137.624 24.3933 137.624 15.7053Z" fill="black"/>
<path fill-rule="evenodd" clip-rule="evenodd" d="M193.929 15.6573C193.929 9.56027 190.234 4.80827 183.656 4.80827C177.079 4.80827 173.384 9.56027 173.384 15.6573C173.384 22.0903 176.984 26.7463 183.656 26.7463C190.329 26.7463 193.929 22.0903 193.929 15.6573ZM168.967 15.7053C168.967 7.11228 174.728 0.776276 183.656 0.776276C192.633 0.776276 198.346 7.11228 198.346 15.7053C198.346 24.2503 192.777 30.7303 183.656 30.7303C174.536 30.7303 168.967 24.2503 168.967 15.7053Z" fill="black"/>
<path fill-rule="evenodd" clip-rule="evenodd" d="M223.81 30.1543H200.431V25.9783L218.049 5.62427L217.953 5.38428C215.505 5.43228 212.577 5.52827 209.888 5.52827H200.959V1.35127H223.713V5.48027L206.096 25.8823L206.192 26.1223C208.64 26.0733 211.521 25.9783 213.968 25.9783H223.81V30.1543Z" fill="black"/>
<path fill-rule="evenodd" clip-rule="evenodd" d="M237.891 30.1543V19.4493L226.753 1.44727V1.35127H231.603L240.099 15.3693L248.548 1.35127H253.396V1.44727L242.308 19.4493V30.1543H237.891Z" fill="black"/>
<path fill-rule="evenodd" clip-rule="evenodd" d="M137.624 55.7053C137.624 47.0163 143.337 40.7763 152.024 40.7763C159.61 40.7763 164.603 45.6243 165.658 52.7773L161.386 53.5453C160.522 48.2653 157.354 44.8083 151.929 44.8083C145.593 44.8083 142.04 49.5603 142.04 55.7053C142.04 62.0903 145.544 66.7463 151.978 66.7463C157.449 66.7463 160.569 63.1453 161.434 57.6733L165.658 58.3933C164.698 65.5943 159.562 70.7303 151.978 70.7303C143.192 70.7303 137.624 64.3933 137.624 55.7053Z" fill="black"/>
<path fill-rule="evenodd" clip-rule="evenodd" d="M193.929 55.6583C193.929 49.5613 190.234 44.8093 183.656 44.8093C177.079 44.8093 173.384 49.5613 173.384 55.6583C173.384 62.0913 176.984 66.7473 183.656 66.7473C190.329 66.7473 193.929 62.0913 193.929 55.6583ZM168.967 55.7063C168.967 47.1133 174.728 40.7773 183.656 40.7773C192.633 40.7773 198.346 47.1133 198.346 55.7063C198.346 64.2513 192.777 70.7313 183.656 70.7313C174.536 70.7313 168.967 64.2513 168.967 55.7063Z" fill="black"/>
<path fill-rule="evenodd" clip-rule="evenodd" d="M213.291 70.1553H207.53L199.657 41.3523H204.458L207.866 55.0343C208.778 58.8263 209.595 62.4263 210.315 66.1713H210.747C211.61 62.3303 212.476 58.8263 213.483 55.0343L217.323 41.3523H222.605L226.396 55.0343C227.404 58.8263 228.173 62.3303 229.036 66.1713H229.468C230.189 62.4263 231.101 58.8263 231.965 55.0343L235.325 41.3523H239.934L232.013 70.1553H226.204L222.556 56.5223C221.644 52.9693 220.636 48.9373 219.868 45.4813H219.579C218.812 48.9373 217.804 53.0173 216.892 56.5223L213.291 70.1553Z" fill="black"/>
<path fill-rule="evenodd" clip-rule="evenodd" d="M266.208 55.6583C266.208 49.5613 262.511 44.8093 255.935 44.8093C249.358 44.8093 245.661 49.5613 245.661 55.6583C245.661 62.0913 249.263 66.7473 255.935 66.7473C262.606 66.7473 266.208 62.0913 266.208 55.6583ZM241.245 55.7063C241.245 47.1133 247.006 40.7773 255.935 40.7773C264.911 40.7773 270.624 47.1133 270.624 55.7063C270.624 64.2513 265.056 70.7313 255.935 70.7313C246.813 70.7313 241.245 64.2513 241.245 55.7063Z" fill="black"/>
<path fill-rule="evenodd" clip-rule="evenodd" d="M279.978 45.2883V54.1693H287.178C290.875 54.1693 293.035 52.5853 293.035 49.6573C293.035 46.9683 291.595 45.2883 287.418 45.2883H279.978ZM285.593 58.1053H279.978V70.1543H275.561V41.3513H287.658C294.331 41.3513 297.403 44.5683 297.403 49.5603C297.403 54.1213 294.859 57.0013 290.251 57.8653L299.227 70.0583V70.1543H293.898L285.593 58.1053Z" fill="black"/>
<path fill-rule="evenodd" clip-rule="evenodd" d="M308.489 58.3453H308.056V70.1543H303.64V41.3513H308.056V54.6973H308.441L321.738 41.3513H326.971V41.4473L311.801 56.2813L327.642 70.0583V70.1543H322.122L308.489 58.3453Z" fill="black"/>
<path fill-rule="evenodd" clip-rule="evenodd" d="M137.624 95.7053C137.624 87.0163 143.337 80.7762 152.024 80.7762C159.61 80.7762 164.603 85.6243 165.658 92.7773L161.386 93.5453C160.522 88.2653 157.354 84.8083 151.929 84.8083C145.593 84.8083 142.04 89.5603 142.04 95.7053C142.04 102.09 145.544 106.746 151.978 106.746C157.449 106.746 160.569 103.145 161.434 97.6732L165.658 98.3932C164.698 105.594 159.562 110.73 151.978 110.73C143.192 110.73 137.624 104.393 137.624 95.7053Z" fill="black"/>
<path fill-rule="evenodd" clip-rule="evenodd" d="M175.429 98.4423H185.461L184.165 95.1773C183.013 92.1053 181.669 88.6013 180.613 85.6733H180.326C179.269 88.6493 177.973 92.1053 176.724 95.1773L175.429 98.4423ZM186.853 102.09H174.036L170.868 110.155H166.259L178.069 81.3523H182.965L194.775 110.155H190.022L186.853 102.09Z" fill="black"/>
<path fill-rule="evenodd" clip-rule="evenodd" d="M202.505 98.2983V110.155H198.089V81.3523H217.29V85.5293H202.505V94.1223H215.706V98.2983H202.505Z" fill="black"/>
<path fill-rule="evenodd" clip-rule="evenodd" d="M221.642 81.3523H241.613V85.5293H226.059V93.4493H240.124V97.5783H226.059V105.979H241.66V110.155H221.642V81.3523Z" fill="black"/>
<path fill-rule="evenodd" clip-rule="evenodd" d="M77.577 84.0803C84.158 89.7023 86.959 93.1253 93.539 98.7473C93.51 98.7223 98.707 92.4913 98.586 92.3873C92.005 86.7643 89.204 83.3413 82.623 77.7193C82.653 77.7443 77.455 83.9763 77.577 84.0803Z" fill="#FF231F"/>
<path fill-rule="evenodd" clip-rule="evenodd" d="M47.286 89.7423C45.989 98.2993 45.521 101.234 44.224 109.791C44.23 109.753 52.267 110.874 52.291 110.716C53.588 102.158 54.056 99.2243 55.353 90.6663C55.347 90.7053 47.31 89.5843 47.286 89.7423Z" fill="#FF231F"/>
<path fill-rule="evenodd" clip-rule="evenodd" d="M56.306 0.792264C55.009 9.34926 54.541 12.2843 53.244 20.8413C53.25 20.8033 61.287 21.9243 61.311 21.7663C62.608 13.2083 63.076 10.2743 64.373 1.71628C64.367 1.75528 56.33 0.634264 56.306 0.792264Z" fill="#FF231F"/>
<path fill-rule="evenodd" clip-rule="evenodd" d="M21.364 44.3823C12.807 43.0853 9.87205 42.6173 1.31504 41.3203C1.35304 41.3263 0.232027 49.3633 0.390027 49.3873C8.94803 50.6843 11.882 51.1523 20.44 52.4493C20.401 52.4433 21.522 44.4063 21.364 44.3823Z" fill="#FF231F"/>
<path fill-rule="evenodd" clip-rule="evenodd" d="M110.195 54.2063C101.638 52.9093 98.703 52.4413 90.146 51.1443C90.184 51.1503 89.063 59.1873 89.221 59.2113C97.779 60.5083 100.713 60.9763 109.271 62.2733C109.232 62.2673 110.353 54.2303 110.195 54.2063Z" fill="#FF231F"/>
<path fill-rule="evenodd" clip-rule="evenodd" d="M17.611 14.8023C23.252 21.3673 25.171 23.6353 30.812 30.2003C30.787 30.1703 36.878 24.8093 36.774 24.6883C31.133 18.1233 29.214 15.8553 23.573 9.29027C23.598 9.31927 17.507 14.6803 17.611 14.8023Z" fill="#FF231F"/>
<path fill-rule="evenodd" clip-rule="evenodd" d="M22.58 70.5053C14.719 74.1273 13.877 74.6823 6.01703 78.3043C6.05203 78.2883 9.53503 85.6173 9.68103 85.5503C17.541 81.9273 18.383 81.3733 26.244 77.7513C26.209 77.7673 22.725 70.4383 22.58 70.5053Z" fill="#FF231F"/>
<path fill-rule="evenodd" clip-rule="evenodd" d="M100.193 22.8633C92.332 26.4853 91.49 27.0403 83.63 30.6623C83.665 30.6463 87.148 37.9753 87.294 37.9083C95.154 34.2853 95.996 33.7313 103.857 30.1093C103.822 30.1253 100.338 22.7963 100.193 22.8633Z" fill="#FF231F"/>
</svg>
