<svg width="119" height="50" viewBox="0 0 119 50" fill="none" xmlns="http://www.w3.org/2000/svg">
<path fill-rule="evenodd" clip-rule="evenodd" d="M5.07593 35.2644H18.5659V39.4404H0.666016V10.6384H5.07593V35.2644Z" fill="black"/>
<path fill-rule="evenodd" clip-rule="evenodd" d="M78.916 39.4414L67.106 10.6384H71.8059L77.666 25.6164C78.816 28.6884 80.2159 32.1924 81.2159 35.1214H81.606C82.656 32.1444 84.0059 28.6884 85.2059 25.6164L91.0559 10.6384H95.616L83.8159 39.4414H78.916Z" fill="black"/>
<path fill-rule="evenodd" clip-rule="evenodd" d="M98.9359 10.6384H118.906V14.8154H103.346V22.7354H117.416V26.8644H103.346V35.2644H118.956V39.4414H98.9359V10.6384Z" fill="black"/>
<path fill-rule="evenodd" clip-rule="evenodd" d="M52.886 37.7354C55.836 40.2554 57.0861 41.7894 60.0361 44.3094C60.0261 44.2984 62.3559 41.5054 62.2959 41.4584C59.3459 38.9384 58.096 37.4044 55.146 34.8844C55.156 34.8954 52.826 37.6884 52.886 37.7354Z" fill="#FF231F"/>
<path fill-rule="evenodd" clip-rule="evenodd" d="M39.3059 40.2734C38.7259 44.1094 38.5159 45.4244 37.9359 49.2594C37.9359 49.2424 41.5359 49.7454 41.5459 49.6744C42.1359 45.8384 42.3459 44.5234 42.9259 40.6874C42.9159 40.7044 39.3159 40.2024 39.3059 40.2734Z" fill="#FF231F"/>
<path fill-rule="evenodd" clip-rule="evenodd" d="M43.3459 0.405383C42.7659 4.24138 42.556 5.55637 41.976 9.39137C41.976 9.37437 45.5859 9.87738 45.5959 9.80638C46.1759 5.97038 46.3859 4.65538 46.9659 0.819384C46.9659 0.836384 43.3659 0.334383 43.3459 0.405383Z" fill="#FF231F"/>
<path fill-rule="evenodd" clip-rule="evenodd" d="M27.6859 19.9424C23.8559 19.3614 22.5359 19.1514 18.7059 18.5704C18.7159 18.5724 18.216 22.1744 18.286 22.1854C22.126 22.7674 23.436 22.9764 27.276 23.5584C27.256 23.5554 27.7559 19.9534 27.6859 19.9424Z" fill="#FF231F"/>
<path fill-rule="evenodd" clip-rule="evenodd" d="M67.506 24.3464C63.666 23.7654 62.356 23.5554 58.516 22.9744C58.536 22.9764 58.036 26.5784 58.106 26.5894C61.936 27.1714 63.2559 27.3804 67.0859 27.9624C67.0759 27.9594 67.576 24.3574 67.506 24.3464Z" fill="#FF231F"/>
<path fill-rule="evenodd" clip-rule="evenodd" d="M26.0059 6.68539C28.5359 9.62739 29.3958 10.6444 31.9258 13.5864C31.9158 13.5734 34.6459 11.1704 34.5959 11.1164C32.0659 8.17439 31.2058 7.15739 28.6758 4.21539C28.6858 4.22839 25.9559 6.63139 26.0059 6.68539Z" fill="#FF231F"/>
<path fill-rule="evenodd" clip-rule="evenodd" d="M28.236 31.6514C24.716 33.2754 24.3359 33.5234 20.8059 35.1474C20.8259 35.1394 22.3859 38.4244 22.4559 38.3944C25.9759 36.7714 26.356 36.5224 29.876 34.8994C29.856 34.9064 28.296 31.6214 28.236 31.6514Z" fill="#FF231F"/>
<path fill-rule="evenodd" clip-rule="evenodd" d="M63.016 10.2984C59.496 11.9224 59.1159 12.1704 55.5959 13.7944C55.6159 13.7864 57.176 17.0714 57.236 17.0414C60.766 15.4184 61.136 15.1694 64.666 13.5464C64.646 13.5534 63.086 10.2684 63.016 10.2984Z" fill="#FF231F"/>
</svg>
