<svg width="191" height="190" viewBox="0 0 191 190" fill="none" xmlns="http://www.w3.org/2000/svg">
<path fill-rule="evenodd" clip-rule="evenodd" d="M37.122 94.4593C37.122 85.7703 42.835 79.5293 51.523 79.5293C59.108 79.5293 64.101 84.3783 65.157 91.5313L60.885 92.2993C60.02 87.0193 56.852 83.5633 51.428 83.5633C45.091 83.5633 41.539 88.3143 41.539 94.4593C41.539 100.844 45.043 105.5 51.476 105.5C56.948 105.5 60.068 101.899 60.933 96.4283L65.157 97.1473C64.197 104.348 59.06 109.484 51.476 109.484C42.691 109.484 37.122 103.147 37.122 94.4593Z" fill="black"/>
<path fill-rule="evenodd" clip-rule="evenodd" d="M93.427 94.4113C93.427 88.3143 89.731 83.5623 83.155 83.5623C76.577 83.5623 72.881 88.3143 72.881 94.4113C72.881 100.844 76.482 105.5 83.155 105.5C89.826 105.5 93.427 100.844 93.427 94.4113ZM68.465 94.4593C68.465 85.8663 74.226 79.5293 83.155 79.5293C92.131 79.5293 97.844 85.8663 97.844 94.4593C97.844 103.004 92.275 109.484 83.155 109.484C74.033 109.484 68.465 103.004 68.465 94.4593Z" fill="black"/>
<path fill-rule="evenodd" clip-rule="evenodd" d="M123.307 108.908H99.929V104.732L117.547 84.3783L117.451 84.1383C115.002 84.1853 112.075 84.2823 109.386 84.2823H100.457V80.1053H123.211V84.2343L105.594 104.636L105.69 104.876C108.138 104.828 111.018 104.732 113.466 104.732H123.307V108.908Z" fill="black"/>
<path fill-rule="evenodd" clip-rule="evenodd" d="M137.389 108.908V98.2033L126.251 80.2013V80.1053H131.1L139.597 94.1233L148.045 80.1053H152.894V80.2013L141.805 98.2033V108.908H137.389Z" fill="black"/>
<path fill-rule="evenodd" clip-rule="evenodd" d="M0 134.459C0 125.77 5.713 119.529 14.401 119.529C21.985 119.529 26.979 124.378 28.034 131.531L23.762 132.299C22.897 127.019 19.729 123.563 14.305 123.563C7.96901 123.563 4.416 128.314 4.416 134.459C4.416 140.844 7.921 145.5 14.354 145.5C19.825 145.5 22.946 141.899 23.81 136.428L28.034 137.147C27.074 144.348 21.937 149.484 14.354 149.484C5.568 149.484 0 143.147 0 134.459Z" fill="black"/>
<path fill-rule="evenodd" clip-rule="evenodd" d="M56.305 134.411C56.305 128.314 52.609 123.562 46.032 123.562C39.455 123.562 35.759 128.314 35.759 134.411C35.759 140.844 39.36 145.5 46.032 145.5C52.704 145.5 56.305 140.844 56.305 134.411ZM31.342 134.459C31.342 125.866 37.103 119.529 46.032 119.529C55.008 119.529 60.721 125.866 60.721 134.459C60.721 143.004 55.153 149.484 46.032 149.484C36.911 149.484 31.342 143.004 31.342 134.459Z" fill="black"/>
<path fill-rule="evenodd" clip-rule="evenodd" d="M75.667 148.908H69.907L62.034 120.105H66.835L70.243 133.787C71.155 137.579 71.971 141.179 72.691 144.924H73.123C73.987 141.084 74.852 137.579 75.859 133.787L79.699 120.105H84.98L88.772 133.787C89.78 137.579 90.549 141.084 91.413 144.924H91.845C92.564 141.179 93.477 137.579 94.341 133.787L97.701 120.105H102.31L94.389 148.908H88.58L84.932 135.275C84.02 131.722 83.012 127.69 82.244 124.234H81.956C81.188 127.69 80.18 131.77 79.268 135.275L75.667 148.908Z" fill="black"/>
<path fill-rule="evenodd" clip-rule="evenodd" d="M128.584 134.411C128.584 128.314 124.888 123.562 118.311 123.562C111.734 123.562 108.038 128.314 108.038 134.411C108.038 140.844 111.639 145.5 118.311 145.5C124.983 145.5 128.584 140.844 128.584 134.411ZM103.621 134.459C103.621 125.866 109.382 119.529 118.311 119.529C127.287 119.529 133 125.866 133 134.459C133 143.004 127.432 149.484 118.311 149.484C109.19 149.484 103.621 143.004 103.621 134.459Z" fill="black"/>
<path fill-rule="evenodd" clip-rule="evenodd" d="M142.352 124.042V132.923H149.553C153.249 132.923 155.41 131.339 155.41 128.41C155.41 125.723 153.969 124.042 149.792 124.042H142.352ZM147.968 136.859H142.352V148.908H137.936V120.105H150.033C156.706 120.105 159.778 123.322 159.778 128.314C159.778 132.875 157.234 135.755 152.625 136.619L161.602 148.813V148.908H156.273L147.968 136.859Z" fill="black"/>
<path fill-rule="evenodd" clip-rule="evenodd" d="M170.864 137.1H170.432V148.909H166.015V120.106H170.432V133.452H170.816L184.113 120.106H189.345V120.202L174.177 135.036L190.017 148.813V148.909H184.497L170.864 137.1Z" fill="black"/>
<path fill-rule="evenodd" clip-rule="evenodd" d="M41.838 174.459C41.838 165.77 47.551 159.529 56.239 159.529C63.824 159.529 68.817 164.378 69.873 171.531L65.601 172.299C64.736 167.019 61.568 163.563 56.144 163.563C49.807 163.563 46.255 168.314 46.255 174.459C46.255 180.844 49.759 185.5 56.192 185.5C61.664 185.5 64.784 181.899 65.649 176.428L69.873 177.147C68.913 184.348 63.776 189.484 56.192 189.484C47.407 189.484 41.838 183.147 41.838 174.459Z" fill="black"/>
<path fill-rule="evenodd" clip-rule="evenodd" d="M79.642 177.196H89.675L88.379 173.931C87.227 170.859 85.883 167.355 84.827 164.426H84.538C83.483 167.403 82.187 170.859 80.938 173.931L79.642 177.196ZM91.067 180.844H78.25L75.081 188.909H70.473L82.283 160.106H87.179L98.988 188.909H94.236L91.067 180.844Z" fill="black"/>
<path fill-rule="evenodd" clip-rule="evenodd" d="M106.719 177.051V188.908H102.302V160.106H121.504V164.282H106.719V172.875H119.92V177.051H106.719Z" fill="black"/>
<path fill-rule="evenodd" clip-rule="evenodd" d="M125.856 160.106H145.826V164.283H130.273V172.204H144.337V176.332H130.273V184.733H145.874V188.909H125.856V160.106Z" fill="black"/>
<path fill-rule="evenodd" clip-rule="evenodd" d="M108.992 52.2983C113.121 55.8263 114.879 57.9743 119.009 61.5023C118.99 61.4863 122.252 57.5763 122.176 57.5113C118.046 53.9833 116.288 51.8343 112.159 48.3063C112.177 48.3223 108.916 52.2333 108.992 52.2983Z" fill="#FF231F"/>
<path fill-rule="evenodd" clip-rule="evenodd" d="M89.984 55.8513C89.17 61.2213 88.877 63.0633 88.063 68.4333C88.066 68.4093 93.11 69.1123 93.125 69.0133C93.939 63.6433 94.232 61.8013 95.046 56.4313C95.042 56.4553 89.999 55.7523 89.984 55.8513Z" fill="#FF231F"/>
<path fill-rule="evenodd" clip-rule="evenodd" d="M95.645 0.0322661C94.831 5.40227 94.538 7.24427 93.724 12.6143C93.727 12.5903 98.771 13.2933 98.786 13.1943C99.6 7.82427 99.893 5.98227 100.707 0.612268C100.703 0.636268 95.66 -0.0667339 95.645 0.0322661Z" fill="#FF231F"/>
<path fill-rule="evenodd" clip-rule="evenodd" d="M73.717 27.3863C68.347 26.5723 66.505 26.2793 61.135 25.4653C61.159 25.4683 60.456 30.5123 60.555 30.5273C65.925 31.3413 67.767 31.6343 73.137 32.4483C73.113 32.4443 73.816 27.4013 73.717 27.3863Z" fill="#FF231F"/>
<path fill-rule="evenodd" clip-rule="evenodd" d="M129.462 33.5513C124.092 32.7373 122.25 32.4443 116.88 31.6303C116.904 31.6333 116.201 36.6773 116.3 36.6923C121.67 37.5063 123.512 37.7993 128.882 38.6133C128.858 38.6093 129.561 33.5663 129.462 33.5513Z" fill="#FF231F"/>
<path fill-rule="evenodd" clip-rule="evenodd" d="M71.362 8.82428C74.902 12.9443 76.106 14.3673 79.646 18.4863C79.63 18.4683 83.453 15.1043 83.387 15.0283C79.848 10.9083 78.643 9.48528 75.103 5.36528C75.119 5.38428 71.296 8.74828 71.362 8.82428Z" fill="#FF231F"/>
<path fill-rule="evenodd" clip-rule="evenodd" d="M74.48 43.7793C69.547 46.0523 69.019 46.4003 64.086 48.6733C64.108 48.6633 66.294 53.2623 66.385 53.2203C71.318 50.9473 71.846 50.5993 76.779 48.3263C76.757 48.3363 74.571 43.7373 74.48 43.7793Z" fill="#FF231F"/>
<path fill-rule="evenodd" clip-rule="evenodd" d="M123.185 13.8823C118.252 16.1553 117.724 16.5033 112.791 18.7763C112.813 18.7663 114.999 23.3653 115.09 23.3233C120.023 21.0503 120.551 20.7023 125.484 18.4293C125.462 18.4393 123.276 13.8403 123.185 13.8823Z" fill="#FF231F"/>
</svg>
