<svg width="136" height="51" viewBox="0 0 136 51" fill="none" xmlns="http://www.w3.org/2000/svg">
<path fill-rule="evenodd" clip-rule="evenodd" d="M110.712 50.6982C101.143 50.6982 93.449 46.2373 89.36 38.8033C85.272 46.2373 77.577 50.6982 68.009 50.6982C58.44 50.6982 50.745 46.2373 46.657 38.8033C42.568 46.2373 34.874 50.6982 25.305 50.6982C10.836 50.6982 0.729004 40.3892 0.729004 25.6282C0.729004 10.9502 10.836 0.698242 25.305 0.698242C34.878 0.698242 42.574 5.14127 46.661 12.5433C50.752 5.14127 58.446 0.698242 68.009 0.698242C77.581 0.698242 85.278 5.14127 89.365 12.5433C93.456 5.14127 101.149 0.698242 110.712 0.698242C125.181 0.698242 135.288 10.9502 135.288 25.6282C135.288 40.3892 125.181 50.6982 110.712 50.6982Z" fill="#FF231F"/>
</svg>
